<svg width="1700" height="500" viewBox="0 0 1700 500" fill="none" xmlns="http://www.w3.org/2000/svg">
<circle cx="250" cy="250" r="225" fill="#D9D9D9"/>
<circle cx="250" cy="250" r="225" fill="url(#paint0_linear_2349_126)"/>
<path d="M167.712 235H125V123H167.279C178.698 123 188.563 125.242 196.874 129.727C205.221 134.174 211.653 140.591 216.17 148.977C220.723 157.326 223 167.333 223 179C223 190.667 220.742 200.693 216.225 209.078C211.708 217.427 205.312 223.844 197.036 228.328C188.761 232.776 178.987 235 167.712 235ZM155.137 209.188H166.628C172.121 209.188 176.801 208.294 180.667 206.508C184.57 204.721 187.533 201.641 189.556 197.266C191.616 192.891 192.646 186.802 192.646 179C192.646 171.198 191.598 165.109 189.502 160.734C187.442 156.359 184.407 153.279 180.396 151.492C176.421 149.706 171.543 148.812 165.761 148.812H155.137V209.188Z" fill="#EFEFEF"/>
<path d="M384 320.5C384 332.962 381.574 343.474 376.722 352.038C371.871 360.564 365.323 367.032 357.078 371.441C348.834 375.814 339.641 378 329.5 378C319.286 378 310.057 375.795 301.812 371.386C293.604 366.941 287.075 360.455 282.223 351.928C277.408 343.365 275 332.889 275 320.5C275 308.038 277.408 297.544 282.223 289.017C287.075 280.454 293.604 273.986 301.812 269.614C310.057 265.205 319.286 263 329.5 263C339.641 263 348.834 265.205 357.078 269.614C365.323 273.986 371.871 280.454 376.722 289.017C381.574 297.544 384 308.038 384 320.5ZM352.701 320.5C352.701 313.795 351.807 308.147 350.02 303.556C348.269 298.928 345.66 295.43 342.195 293.062C338.766 290.657 334.534 289.454 329.5 289.454C324.466 289.454 320.216 290.657 316.75 293.062C313.321 295.43 310.713 298.928 308.926 303.556C307.175 308.147 306.299 313.795 306.299 320.5C306.299 327.205 307.175 332.871 308.926 337.499C310.713 342.09 313.321 345.588 316.75 347.993C320.216 350.361 324.466 351.546 329.5 351.546C334.534 351.546 338.766 350.361 342.195 347.993C345.66 345.588 348.269 342.09 350.02 337.499C351.807 332.871 352.701 327.205 352.701 320.5Z" fill="#EFEFEF"/>
<path d="M325.711 144.98C333.421 137.269 345.922 137.269 353.633 144.98C361.344 152.69 361.344 165.191 353.633 172.902L168.61 357.925C160.899 365.636 148.398 365.636 140.688 357.925C132.977 350.215 132.977 337.713 140.688 330.003L325.711 144.98Z" fill="#EFEFEF"/>
<path d="M537.248 296L555.168 206.4H591.392C600.523 206.4 608.331 207.936 614.816 211.008C621.301 213.995 626.251 218.261 629.664 223.808C633.163 229.355 634.912 235.883 634.912 243.392C634.912 251.328 633.547 258.539 630.816 265.024C628.171 271.509 624.373 277.056 619.424 281.664C614.56 286.187 608.715 289.728 601.888 292.288C595.061 294.763 587.467 296 579.104 296H537.248ZM556.704 281.92H579.616C587.637 281.92 594.507 280.299 600.224 277.056C606.027 273.728 610.464 269.248 613.536 263.616C616.608 257.984 618.144 251.584 618.144 244.416C618.144 239.552 617.077 235.328 614.944 231.744C612.811 228.16 609.611 225.387 605.344 223.424C601.163 221.461 595.915 220.48 589.6 220.48H568.992L556.704 281.92ZM642.998 296L660.918 206.4H677.558L659.638 296H642.998ZM713.185 297.28C708.492 297.28 703.926 296.811 699.489 295.872C695.137 294.933 691.126 293.696 687.457 292.16C683.873 290.539 680.886 288.747 678.497 286.784L685.537 273.728C688.012 275.776 690.828 277.525 693.985 278.976C697.142 280.427 700.47 281.536 703.969 282.304C707.553 283.072 711.137 283.456 714.721 283.456C719.073 283.456 722.87 282.944 726.113 281.92C729.356 280.896 731.83 279.445 733.537 277.568C735.329 275.691 736.225 273.429 736.225 270.784C736.225 268.395 735.414 266.475 733.793 265.024C732.172 263.488 729.996 262.251 727.265 261.312C724.62 260.288 721.676 259.349 718.433 258.496C715.276 257.557 712.076 256.533 708.833 255.424C705.59 254.229 702.646 252.779 700.001 251.072C697.356 249.28 695.18 247.019 693.473 244.288C691.852 241.557 691.041 238.144 691.041 234.048C691.041 228.16 692.662 223.083 695.905 218.816C699.233 214.464 703.798 211.093 709.601 208.704C715.489 206.315 722.316 205.12 730.081 205.12C735.884 205.12 741.388 205.76 746.593 207.04C751.798 208.32 756.278 210.197 760.033 212.672L753.505 225.856C750.177 223.637 746.422 221.931 742.241 220.736C738.06 219.541 733.708 218.944 729.185 218.944C724.748 218.944 720.908 219.499 717.665 220.608C714.422 221.717 711.948 223.253 710.241 225.216C708.534 227.179 707.638 229.483 707.553 232.128C707.553 234.603 708.364 236.608 709.985 238.144C711.606 239.595 713.74 240.832 716.385 241.856C719.03 242.88 721.974 243.861 725.217 244.8C728.46 245.653 731.66 246.635 734.817 247.744C738.06 248.853 741.046 250.261 743.777 251.968C746.508 253.675 748.684 255.851 750.305 258.496C751.926 261.056 752.737 264.299 752.737 268.224C752.737 274.112 751.073 279.232 747.745 283.584C744.502 287.936 739.894 291.307 733.921 293.696C728.033 296.085 721.121 297.28 713.185 297.28ZM809.813 297.28C800.682 297.28 792.874 295.659 786.389 292.416C779.904 289.173 774.912 284.693 771.413 278.976C768 273.173 766.293 266.517 766.293 259.008C766.293 251.413 767.573 244.373 770.133 237.888C772.778 231.317 776.533 225.6 781.397 220.736C786.261 215.872 792.064 212.075 798.805 209.344C805.546 206.528 813.098 205.12 821.461 205.12C829.226 205.12 836.053 206.4 841.941 208.96C847.829 211.52 852.352 215.232 855.509 220.096L843.477 230.208C841.002 226.795 837.845 224.192 834.005 222.4C830.165 220.608 825.6 219.712 820.309 219.712C814.592 219.712 809.429 220.693 804.821 222.656C800.213 224.619 796.288 227.392 793.045 230.976C789.802 234.475 787.328 238.571 785.621 243.264C783.914 247.872 783.061 252.779 783.061 257.984C783.061 262.848 784.128 267.157 786.261 270.912C788.394 274.667 791.552 277.568 795.733 279.616C799.914 281.664 805.034 282.688 811.093 282.688C816.128 282.688 820.778 281.835 825.045 280.128C829.397 278.421 833.237 275.819 836.565 272.32L846.293 282.816C841.941 287.765 836.608 291.435 830.293 293.824C824.064 296.128 817.237 297.28 809.813 297.28ZM900.298 297.28C891.253 297.28 883.53 295.659 877.13 292.416C870.73 289.173 865.823 284.693 862.41 278.976C859.082 273.173 857.418 266.517 857.418 259.008C857.418 251.413 858.698 244.373 861.258 237.888C863.818 231.317 867.53 225.6 872.394 220.736C877.258 215.872 883.061 212.075 889.802 209.344C896.543 206.528 904.053 205.12 912.33 205.12C921.29 205.12 928.97 206.741 935.37 209.984C941.77 213.227 946.677 217.749 950.09 223.552C953.503 229.269 955.21 235.883 955.21 243.392C955.21 250.987 953.887 258.069 951.242 264.64C948.682 271.125 944.97 276.8 940.106 281.664C935.242 286.528 929.439 290.368 922.698 293.184C916.042 295.915 908.575 297.28 900.298 297.28ZM901.706 282.688C907.338 282.688 912.415 281.707 916.938 279.744C921.461 277.696 925.301 274.923 928.458 271.424C931.701 267.84 934.175 263.744 935.882 259.136C937.589 254.443 938.442 249.536 938.442 244.416C938.442 239.552 937.375 235.243 935.242 231.488C933.109 227.733 929.994 224.832 925.898 222.784C921.802 220.736 916.767 219.712 910.794 219.712C905.247 219.712 900.17 220.736 895.562 222.784C891.039 224.747 887.157 227.52 883.914 231.104C880.757 234.603 878.325 238.699 876.618 243.392C874.997 248 874.186 252.864 874.186 257.984C874.186 262.848 875.21 267.157 877.258 270.912C879.391 274.667 882.506 277.568 886.602 279.616C890.698 281.664 895.733 282.688 901.706 282.688ZM1004.21 297.28C995.76 297.28 988.72 295.616 983.088 292.288C977.456 288.96 973.488 284.309 971.184 278.336C968.965 272.277 968.667 265.152 970.288 256.96L980.4 206.4H997.04L986.928 256.704C986.16 261.056 985.947 264.896 986.288 268.224C986.715 271.467 987.739 274.197 989.36 276.416C991.067 278.549 993.285 280.128 996.016 281.152C998.832 282.176 1002.12 282.688 1005.87 282.688C1010.65 282.688 1014.75 281.792 1018.16 280C1021.66 278.208 1024.56 275.392 1026.86 271.552C1029.25 267.627 1031.09 262.635 1032.37 256.576L1042.35 206.4H1058.74L1048.5 257.728C1045.85 270.869 1040.82 280.768 1033.39 287.424C1025.97 293.995 1016.24 297.28 1004.21 297.28ZM1064.25 296L1082.17 206.4H1095.86L1136.7 275.904L1131.45 275.264L1145.14 206.4H1161.66L1143.74 296H1130.04L1089.34 226.496L1094.58 227.136L1080.76 296H1064.25ZM1186.05 296L1201.15 220.48H1171.46L1174.27 206.4H1250.18L1247.36 220.48H1217.67L1202.69 296H1186.05ZM1325.05 297.28C1316 297.28 1308.28 295.659 1301.88 292.416C1295.48 289.173 1290.57 284.693 1287.16 278.976C1283.83 273.173 1282.17 266.517 1282.17 259.008C1282.17 251.413 1283.45 244.373 1286.01 237.888C1288.57 231.317 1292.28 225.6 1297.14 220.736C1302.01 215.872 1307.81 212.075 1314.55 209.344C1321.29 206.528 1328.8 205.12 1337.08 205.12C1346.04 205.12 1353.72 206.741 1360.12 209.984C1366.52 213.227 1371.43 217.749 1374.84 223.552C1378.25 229.269 1379.96 235.883 1379.96 243.392C1379.96 250.987 1378.64 258.069 1375.99 264.64C1373.43 271.125 1369.72 276.8 1364.86 281.664C1359.99 286.528 1354.19 290.368 1347.45 293.184C1340.79 295.915 1333.33 297.28 1325.05 297.28ZM1326.46 282.688C1332.09 282.688 1337.17 281.707 1341.69 279.744C1346.21 277.696 1350.05 274.923 1353.21 271.424C1356.45 267.84 1358.93 263.744 1360.63 259.136C1362.34 254.443 1363.19 249.536 1363.19 244.416C1363.19 239.552 1362.13 235.243 1359.99 231.488C1357.86 227.733 1354.74 224.832 1350.65 222.784C1346.55 220.736 1341.52 219.712 1335.54 219.712C1330 219.712 1324.92 220.736 1320.31 222.784C1315.79 224.747 1311.91 227.52 1308.66 231.104C1305.51 234.603 1303.07 238.699 1301.37 243.392C1299.75 248 1298.94 252.864 1298.94 257.984C1298.94 262.848 1299.96 267.157 1302.01 270.912C1304.14 274.667 1307.26 277.568 1311.35 279.616C1315.45 281.664 1320.48 282.688 1326.46 282.688ZM1388 296L1405.92 206.4H1419.61L1460.45 275.904L1455.2 275.264L1468.89 206.4H1485.41L1467.49 296H1453.79L1413.09 226.496L1418.33 227.136L1404.51 296H1388ZM1517.35 243.648H1562.02L1559.34 257.344H1514.66L1517.35 243.648ZM1510.95 282.048H1561.64L1558.82 296H1491.62L1509.54 206.4H1574.95L1572.14 220.352H1523.24L1510.95 282.048Z" fill="url(#paint1_linear_2349_126)"/>
<defs>
<linearGradient id="paint0_linear_2349_126" x1="25" y1="25" x2="475" y2="475" gradientUnits="userSpaceOnUse">
<stop stop-color="#04BFCE"/>
<stop offset="1" stop-color="#7B30E6"/>
</linearGradient>
<linearGradient id="paint1_linear_2349_126" x1="1569.5" y1="207" x2="532" y2="296" gradientUnits="userSpaceOnUse">
<stop stop-color="#664AE2"/>
<stop offset="1" stop-color="#1EA0D3"/>
</linearGradient>
</defs>
</svg>
