<svg width="204" height="60" viewBox="0 0 204 60" fill="none" xmlns="http://www.w3.org/2000/svg">
<path d="M30 57C44.9117 57 57 44.9117 57 30C57 15.0883 44.9117 3 30 3C15.0883 3 3 15.0883 3 30C3 44.9117 15.0883 57 30 57Z" fill="#D9D9D9"/>
<path d="M30 57C44.9117 57 57 44.9117 57 30C57 15.0883 44.9117 3 30 3C15.0883 3 3 15.0883 3 30C3 44.9117 15.0883 57 30 57Z" fill="white"/>
<path d="M20.1254 28.2H15V14.76H20.0735C21.4438 14.76 22.6276 15.0291 23.6249 15.5673C24.6265 16.1009 25.3984 16.8709 25.9404 17.8773C26.4868 18.8791 26.76 20.08 26.76 21.48C26.76 22.88 26.489 24.0832 25.947 25.0894C25.405 26.0913 24.6374 26.8613 23.6443 27.3994C22.6513 27.9331 21.4784 28.2 20.1254 28.2ZM18.6164 25.1026H19.9954C20.6545 25.1026 21.2161 24.9953 21.68 24.781C22.1484 24.5665 22.504 24.1969 22.7467 23.6719C22.9939 23.1469 23.1175 22.4163 23.1175 21.48C23.1175 20.5438 22.9918 19.8131 22.7402 19.2881C22.493 18.7631 22.1288 18.3935 21.6475 18.1791C21.1705 17.9647 20.5852 17.8574 19.8913 17.8574H18.6164V25.1026Z" fill="#262626"/>
<path d="M46.08 38.4601C46.08 39.9555 45.7889 41.2169 45.2066 42.2446C44.6245 43.2677 43.8388 44.0439 42.8494 44.573C41.8601 45.0977 40.7569 45.3601 39.54 45.3601C38.3143 45.3601 37.2068 45.0955 36.2174 44.5664C35.2325 44.033 34.449 43.2547 33.8668 42.2314C33.289 41.2039 33 39.9467 33 38.4601C33 36.9646 33.289 35.7053 33.8668 34.6821C34.449 33.6545 35.2325 32.8784 36.2174 32.3537C37.2068 31.8247 38.3143 31.5601 39.54 31.5601C40.7569 31.5601 41.8601 31.8247 42.8494 32.3537C43.8388 32.8784 44.6245 33.6545 45.2066 34.6821C45.7889 35.7053 46.08 36.9646 46.08 38.4601ZM42.3241 38.4601C42.3241 37.6555 42.2168 36.9777 42.0024 36.4268C41.7923 35.8714 41.4792 35.4517 41.0634 35.1675C40.6519 34.8789 40.1441 34.7345 39.54 34.7345C38.9359 34.7345 38.4259 34.8789 38.01 35.1675C37.5985 35.4517 37.2856 35.8714 37.0711 36.4268C36.861 36.9777 36.7559 37.6555 36.7559 38.4601C36.7559 39.2647 36.861 39.9446 37.0711 40.4999C37.2856 41.0509 37.5985 41.4706 38.01 41.7592C38.4259 42.0434 38.9359 42.1856 39.54 42.1856C40.1441 42.1856 40.6519 42.0434 41.0634 41.7592C41.4792 41.4706 41.7923 41.0509 42.0024 40.4999C42.2168 39.9446 42.3241 39.2647 42.3241 38.4601Z" fill="#262626"/>
<path d="M39.0853 17.3976C40.0105 16.4723 41.5107 16.4723 42.436 17.3976C43.3613 18.3228 43.3613 19.8229 42.436 20.7482L20.2332 42.951C19.3079 43.8763 17.8078 43.8763 16.8826 42.951C15.9573 42.0258 15.9573 40.5256 16.8826 39.6004L39.0853 17.3976Z" fill="#262626"/>
<mask id="mask0_47_5070" style="mask-type:alpha" maskUnits="userSpaceOnUse" x="64" y="22" width="125" height="12">
<path d="M64.4697 33.7201L66.6201 22.9681H70.967C72.0627 22.9681 72.9997 23.1524 73.7779 23.521C74.5561 23.8795 75.1501 24.3914 75.5596 25.057C75.9795 25.7227 76.1894 26.506 76.1894 27.4071C76.1894 28.3594 76.0256 29.2247 75.6979 30.0029C75.3805 30.7811 74.9247 31.4468 74.3308 31.9997C73.7472 32.5425 73.0458 32.9674 72.2265 33.2746C71.4073 33.5716 70.496 33.7201 69.4924 33.7201H64.4697ZM66.8044 32.0305H69.5539C70.5164 32.0305 71.3408 31.8359 72.0268 31.4468C72.7232 31.0474 73.2556 30.5098 73.6243 29.834C73.9929 29.1581 74.1772 28.3901 74.1772 27.53C74.1772 26.9463 74.0492 26.4394 73.7932 26.0093C73.5373 25.5793 73.1533 25.2465 72.6412 25.0109C72.1395 24.7754 71.5098 24.6577 70.752 24.6577H68.279L66.8044 32.0305ZM77.1597 33.7201L79.3101 22.9681H81.3069L79.1565 33.7201H77.1597ZM85.5822 33.8737C85.019 33.8737 84.4711 33.8174 83.9387 33.7047C83.4164 33.592 82.9351 33.4436 82.4948 33.2593C82.0647 33.0647 81.7063 32.8497 81.4196 32.6141L82.2644 31.0474C82.5614 31.2932 82.8993 31.5031 83.2782 31.6772C83.657 31.8513 84.0564 31.9844 84.4762 32.0765C84.9063 32.1687 85.3364 32.2148 85.7665 32.2148C86.2887 32.2148 86.7444 32.1533 87.1335 32.0305C87.5227 31.9076 87.8196 31.7335 88.0244 31.5082C88.2394 31.283 88.347 31.0115 88.347 30.6941C88.347 30.4075 88.2497 30.1771 88.0551 30.0029C87.8606 29.8186 87.5995 29.6702 87.2718 29.5575C86.9544 29.4346 86.6011 29.3219 86.2119 29.2196C85.8331 29.1069 85.4491 28.984 85.0599 28.8509C84.6708 28.7075 84.3175 28.5335 84.0001 28.3287C83.6827 28.1137 83.4216 27.8423 83.2167 27.5146C83.0222 27.1869 82.9249 26.7773 82.9249 26.2858C82.9249 25.5793 83.1194 24.97 83.5086 24.458C83.9079 23.9357 84.4557 23.5312 85.1521 23.2445C85.8587 22.9579 86.6779 22.8145 87.6097 22.8145C88.306 22.8145 88.9665 22.8913 89.5911 23.0449C90.2157 23.1985 90.7533 23.4237 91.2039 23.7207L90.4206 25.3028C90.0212 25.0365 89.5706 24.8318 89.0689 24.6884C88.5672 24.545 88.0449 24.4733 87.5022 24.4733C86.9697 24.4733 86.5089 24.5399 86.1198 24.673C85.7306 24.8061 85.4337 24.9904 85.2289 25.226C85.0241 25.4615 84.9165 25.738 84.9063 26.0554C84.9063 26.3524 85.0036 26.593 85.1982 26.7773C85.3927 26.9515 85.6488 27.0999 85.9662 27.2228C86.2836 27.3457 86.6368 27.4634 87.026 27.5761C87.4152 27.6784 87.7992 27.7963 88.178 27.9293C88.5672 28.0624 88.9255 28.2314 89.2532 28.4362C89.5809 28.6411 89.842 28.9022 90.0366 29.2196C90.2311 29.5268 90.3284 29.9159 90.3284 30.3869C90.3284 31.0935 90.1287 31.7079 89.7294 32.2301C89.3402 32.7524 88.7873 33.1569 88.0705 33.4436C87.3639 33.7303 86.5345 33.8737 85.5822 33.8737ZM97.1775 33.8737C96.0818 33.8737 95.1448 33.6791 94.3666 33.29C93.5884 32.9008 92.9894 32.3632 92.5695 31.6772C92.16 30.9808 91.9551 30.1821 91.9551 29.281C91.9551 28.3696 92.1087 27.5248 92.4159 26.7466C92.7333 25.9581 93.1839 25.2721 93.7676 24.6884C94.3513 24.1047 95.0476 23.6491 95.8566 23.3213C96.6655 22.9834 97.5717 22.8145 98.5753 22.8145C99.5071 22.8145 100.326 22.9681 101.033 23.2753C101.739 23.5825 102.282 24.0279 102.661 24.6116L101.217 25.825C100.92 25.4155 100.541 25.1031 100.081 24.8881C99.6198 24.673 99.072 24.5655 98.4371 24.5655C97.751 24.5655 97.1314 24.6832 96.5785 24.9188C96.0255 25.1543 95.5545 25.4871 95.1654 25.9172C94.7762 26.3371 94.4793 26.8286 94.2745 27.3917C94.0696 27.9447 93.9673 28.5335 93.9673 29.1581C93.9673 29.7418 94.0953 30.2589 94.3513 30.7095C94.6072 31.1601 94.9862 31.5082 95.4879 31.754C95.9896 31.9997 96.6041 32.1226 97.3311 32.1226C97.9353 32.1226 98.4933 32.0203 99.0054 31.8154C99.5276 31.6106 99.9884 31.2983 100.388 30.8785L101.555 32.138C101.033 32.7319 100.393 33.1723 99.6351 33.4589C98.8877 33.7354 98.0684 33.8737 97.1775 33.8737ZM108.036 33.8737C106.95 33.8737 106.024 33.6791 105.256 33.29C104.488 32.9008 103.899 32.3632 103.489 31.6772C103.09 30.9808 102.89 30.1821 102.89 29.281C102.89 28.3696 103.044 27.5248 103.351 26.7466C103.658 25.9581 104.104 25.2721 104.687 24.6884C105.271 24.1047 105.967 23.6491 106.776 23.3213C107.585 22.9834 108.486 22.8145 109.48 22.8145C110.555 22.8145 111.476 23.009 112.244 23.3981C113.012 23.7873 113.601 24.3299 114.011 25.0263C114.42 25.7123 114.625 26.506 114.625 27.4071C114.625 28.3185 114.466 29.1683 114.149 29.9569C113.842 30.7351 113.396 31.4161 112.813 31.9997C112.229 32.5834 111.533 33.0442 110.724 33.3821C109.925 33.7099 109.029 33.8737 108.036 33.8737ZM108.205 32.1226C108.881 32.1226 109.49 32.0049 110.033 31.7693C110.575 31.5236 111.036 31.1908 111.415 30.7709C111.804 30.3409 112.101 29.8493 112.306 29.2964C112.511 28.7332 112.613 28.1444 112.613 27.53C112.613 26.9463 112.485 26.4292 112.229 25.9786C111.973 25.528 111.599 25.1799 111.108 24.9341C110.616 24.6884 110.012 24.5655 109.295 24.5655C108.63 24.5655 108.02 24.6884 107.467 24.9341C106.925 25.1697 106.459 25.5025 106.07 25.9325C105.691 26.3524 105.399 26.8439 105.194 27.4071C105 27.9601 104.902 28.5437 104.902 29.1581C104.902 29.7418 105.025 30.2589 105.271 30.7095C105.527 31.1601 105.901 31.5082 106.392 31.754C106.884 31.9997 107.488 32.1226 108.205 32.1226ZM120.505 33.8737C119.491 33.8737 118.646 33.674 117.971 33.2746C117.295 32.8753 116.819 32.3171 116.542 31.6004C116.276 30.8733 116.24 30.0183 116.435 29.0353L117.648 22.9681H119.645L118.431 29.0045C118.339 29.5268 118.314 29.9876 118.355 30.3869C118.406 30.7761 118.529 31.1037 118.723 31.37C118.928 31.6259 119.194 31.8154 119.522 31.9383C119.86 32.0612 120.254 32.1226 120.704 32.1226C121.278 32.1226 121.77 32.0151 122.179 31.8001C122.599 31.585 122.947 31.2471 123.223 30.7863C123.51 30.3153 123.731 29.7163 123.884 28.9892L125.082 22.9681H127.049L125.82 29.1274C125.502 30.7043 124.898 31.8922 124.007 32.6909C123.116 33.4795 121.949 33.8737 120.505 33.8737ZM127.71 33.7201L129.86 22.9681H131.503L136.404 31.3085L135.774 31.2317L137.417 22.9681H139.399L137.249 33.7201H135.605L130.721 25.3796L131.35 25.4564L129.691 33.7201H127.71ZM142.326 33.7201L144.138 24.6577H140.575L140.912 22.9681H150.022L149.683 24.6577H146.12L144.323 33.7201H142.326ZM159.006 33.8737C157.92 33.8737 156.994 33.6791 156.226 33.29C155.458 32.9008 154.868 32.3632 154.459 31.6772C154.06 30.9808 153.86 30.1821 153.86 29.281C153.86 28.3696 154.014 27.5248 154.321 26.7466C154.628 25.9581 155.074 25.2721 155.657 24.6884C156.241 24.1047 156.937 23.6491 157.746 23.3213C158.555 22.9834 159.456 22.8145 160.45 22.8145C161.525 22.8145 162.446 23.009 163.214 23.3981C163.982 23.7873 164.572 24.3299 164.981 25.0263C165.39 25.7123 165.595 26.506 165.595 27.4071C165.595 28.3185 165.437 29.1683 165.119 29.9569C164.812 30.7351 164.366 31.4161 163.783 31.9997C163.199 32.5834 162.503 33.0442 161.694 33.3821C160.895 33.7099 160 33.8737 159.006 33.8737ZM159.175 32.1226C159.851 32.1226 160.46 32.0049 161.003 31.7693C161.545 31.5236 162.006 31.1908 162.385 30.7709C162.774 30.3409 163.072 29.8493 163.276 29.2964C163.481 28.7332 163.583 28.1444 163.583 27.53C163.583 26.9463 163.456 26.4292 163.199 25.9786C162.943 25.528 162.569 25.1799 162.078 24.9341C161.586 24.6884 160.982 24.5655 160.265 24.5655C159.6 24.5655 158.99 24.6884 158.437 24.9341C157.895 25.1697 157.429 25.5025 157.039 25.9325C156.661 26.3524 156.368 26.8439 156.164 27.4071C155.97 27.9601 155.873 28.5437 155.873 29.1581C155.873 29.7418 155.995 30.2589 156.241 30.7095C156.497 31.1601 156.871 31.5082 157.362 31.754C157.854 31.9997 158.458 32.1226 159.175 32.1226ZM166.56 33.7201L168.71 22.9681H170.353L175.254 31.3085L174.624 31.2317L176.267 22.9681H178.249L176.099 33.7201H174.455L169.571 25.3796L170.2 25.4564L168.541 33.7201H166.56ZM182.082 27.4378H187.442L187.121 29.0813H181.759L182.082 27.4378ZM181.314 32.0458H187.397L187.058 33.7201H178.994L181.145 22.9681H188.994L188.657 24.6423H182.789L181.314 32.0458Z" fill="black"/>
</mask>
<g mask="url(#mask0_47_5070)">
<path d="M192.36 -90.12H60.48V150H192.36V-90.12Z" fill="#1E1E1E"/>
<path d="M192.36 -90.12H60.48V150H192.36V-90.12Z" fill="white"/>
</g>
</svg>
