<svg width="20" height="20" viewBox="0 0 20 20" fill="none" xmlns="http://www.w3.org/2000/svg">
<path d="M16 10.75C16.4142 10.75 16.75 10.4142 16.75 10C16.75 9.58579 16.4142 9.25 16 9.25L16 10.75ZM3.46967 9.46967C3.17678 9.76256 3.17678 10.2374 3.46967 10.5303L8.24264 15.3033C8.53553 15.5962 9.01041 15.5962 9.3033 15.3033C9.59619 15.0104 9.59619 14.5355 9.3033 14.2426L5.06066 10L9.3033 5.75736C9.59619 5.46447 9.59619 4.98959 9.3033 4.6967C9.01041 4.40381 8.53553 4.40381 8.24264 4.6967L3.46967 9.46967ZM16 9.25L4 9.25L4 10.75L16 10.75L16 9.25Z" fill="#A3A3A3"/>
</svg>
