<svg width="40" height="40" viewBox="0 0 40 40" fill="none" xmlns="http://www.w3.org/2000/svg">
<path d="M22.7 29.1L14.275 20.7C14.175 20.6 14.1043 20.4917 14.063 20.375C14.021 20.2584 14 20.1334 14 20C14 19.8667 14.021 19.7417 14.063 19.625C14.1043 19.5084 14.175 19.4 14.275 19.3L22.7 10.875C22.9333 10.6417 23.225 10.525 23.575 10.525C23.925 10.525 24.225 10.65 24.475 10.9C24.725 11.15 24.85 11.4417 24.85 11.775C24.85 12.1084 24.725 12.4 24.475 12.65L17.125 20L24.475 27.35C24.7083 27.5834 24.825 27.8707 24.825 28.212C24.825 28.554 24.7 28.85 24.45 29.1C24.2 29.35 23.9083 29.475 23.575 29.475C23.2417 29.475 22.95 29.35 22.7 29.1Z" fill="#04BFCE"/>
</svg>
