<svg width="42" height="40" viewBox="0 0 42 40" fill="none" xmlns="http://www.w3.org/2000/svg">
<path d="M19.8 29.1L28.225 20.7C28.325 20.6 28.3957 20.4917 28.437 20.375C28.479 20.2584 28.5 20.1334 28.5 20C28.5 19.8667 28.479 19.7417 28.437 19.625C28.3957 19.5084 28.325 19.4 28.225 19.3L19.8 10.875C19.5667 10.6417 19.275 10.525 18.925 10.525C18.575 10.525 18.275 10.65 18.025 10.9C17.775 11.15 17.65 11.4417 17.65 11.775C17.65 12.1084 17.775 12.4 18.025 12.65L25.375 20L18.025 27.35C17.7917 27.5834 17.675 27.8707 17.675 28.212C17.675 28.554 17.8 28.85 18.05 29.1C18.3 29.35 18.5917 29.475 18.925 29.475C19.2583 29.475 19.55 29.35 19.8 29.1Z" fill="#04BFCE"/>
</svg>
