<svg width="21" height="20" viewBox="0 0 21 20" fill="none" xmlns="http://www.w3.org/2000/svg">
<g clip-path="url(#clip0_32_15253)">
<path d="M19.6667 15.8333C19.6667 16.2754 19.4911 16.6993 19.1785 17.0118C18.866 17.3244 18.442 17.5 18 17.5H3.00001C2.55798 17.5 2.13406 17.3244 1.8215 17.0118C1.50894 16.6993 1.33334 16.2754 1.33334 15.8333V6.66667C1.33334 6.22464 1.50894 5.80072 1.8215 5.48816C2.13406 5.17559 2.55798 5 3.00001 5H6.33334L8.00001 2.5H13L14.6667 5H18C18.442 5 18.866 5.17559 19.1785 5.48816C19.4911 5.80072 19.6667 6.22464 19.6667 6.66667V15.8333Z" stroke="#7C7E80" stroke-width="1.5" stroke-linecap="round" stroke-linejoin="round"/>
<path d="M10.5 14.1667C12.3409 14.1667 13.8333 12.6743 13.8333 10.8333C13.8333 8.99238 12.3409 7.5 10.5 7.5C8.65904 7.5 7.16666 8.99238 7.16666 10.8333C7.16666 12.6743 8.65904 14.1667 10.5 14.1667Z" stroke="#7C7E80" stroke-width="1.5" stroke-linecap="round" stroke-linejoin="round"/>
</g>
<defs>
<clipPath id="clip0_32_15253">
<rect width="20" height="20" fill="white" transform="translate(0.5)"/>
</clipPath>
</defs>
</svg>
