<svg width="20" height="21" viewBox="0 0 20 21" fill="none" xmlns="http://www.w3.org/2000/svg">
<path d="M6.66667 16.5C7.10869 16.5 7.53262 16.3244 7.84518 16.0118C8.15774 15.6992 8.33333 15.2753 8.33333 14.8333C8.33333 14.3913 8.15774 13.9673 7.84518 13.6548C7.53262 13.3422 7.10869 13.1666 6.66667 13.1666C6.22464 13.1666 5.80072 13.3422 5.48816 13.6548C5.17559 13.9673 5 14.3913 5 14.8333C5 15.2753 5.17559 15.6992 5.48816 16.0118C5.80072 16.3244 6.22464 16.5 6.66667 16.5ZM15 16.5C15.442 16.5 15.866 16.3244 16.1785 16.0118C16.4911 15.6992 16.6667 15.2753 16.6667 14.8333C16.6667 14.3913 16.4911 13.9673 16.1785 13.6548C15.866 13.3422 15.442 13.1666 15 13.1666C14.558 13.1666 14.1341 13.3422 13.8215 13.6548C13.5089 13.9673 13.3333 14.3913 13.3333 14.8333C13.3333 15.2753 13.5089 15.6992 13.8215 16.0118C14.1341 16.3244 14.558 16.5 15 16.5Z" stroke="#262626" stroke-miterlimit="1.5" stroke-linecap="round" stroke-linejoin="round"/>
<path d="M8.79195 14.8333H12.5002V6.16663C12.5002 6.03402 12.4475 5.90684 12.3537 5.81307C12.2599 5.7193 12.1328 5.66663 12.0002 5.66663H0.833496M4.7085 14.8333H3.00016C2.9345 14.8333 2.86948 14.8204 2.80882 14.7952C2.74816 14.7701 2.69304 14.7333 2.64661 14.6868C2.60018 14.6404 2.56335 14.5853 2.53822 14.5246C2.5131 14.464 2.50016 14.399 2.50016 14.3333V10.25" stroke="#262626" stroke-width="1.5" stroke-linecap="round"/>
<path d="M12.5 8.16663H17.175C17.2716 8.16665 17.3662 8.19468 17.4473 8.24733C17.5283 8.29999 17.5924 8.375 17.6317 8.46329L19.1233 11.82C19.1518 11.8837 19.1665 11.9527 19.1667 12.0225V14.3333C19.1667 14.399 19.1537 14.464 19.1286 14.5246C19.1035 14.5853 19.0666 14.6404 19.0202 14.6868C18.9738 14.7333 18.9187 14.7701 18.858 14.7952C18.7973 14.8204 18.7323 14.8333 18.6667 14.8333H17.0833M12.5 14.8333H12.874" stroke="#262626" stroke-width="1.5" stroke-linecap="round"/>
</svg>
