<svg width="48" height="48" viewBox="0 0 48 48" fill="none" xmlns="http://www.w3.org/2000/svg">
<path d="M39.248 21.1806C39.0048 21.0447 38.7289 20.973 38.4479 20.973C38.1672 20.973 37.8913 21.0447 37.6481 21.1806L33.5999 23.1029V20.9481C33.5999 20.5371 33.4315 20.1429 33.1312 19.8522C32.8312 19.5613 32.4243 19.3981 32 19.3981H30.1119C30.3058 18.9029 30.4033 18.3774 30.3999 17.848C30.4007 16.2271 29.5301 14.723 28.1024 13.878C26.6751 13.0328 24.8962 12.9689 23.408 13.7091C22.6974 12.1398 21.3481 10.9258 19.6805 10.3546C18.0131 9.78346 16.1761 9.90621 14.6054 10.6941C13.0347 11.4817 11.8703 12.8641 11.389 14.5128C10.9076 16.1617 11.1519 17.93 12.064 19.398H9.59991C9.17562 19.398 8.76848 19.5613 8.46848 19.8522C8.16848 20.1428 8 20.537 8 20.9481V36.45C8 36.861 8.16848 37.2552 8.46848 37.5459C8.76848 37.8368 9.17559 38 9.59991 38H32.0002C32.4245 38 32.8313 37.8368 33.1313 37.5459C33.4316 37.2552 33.6001 36.861 33.6001 36.45V34.3106L37.6801 36.2792V36.2795C37.9029 36.39 38.1496 36.4484 38.4001 36.45C38.6996 36.4508 38.9934 36.3703 39.2481 36.2174C39.7169 35.9335 40.001 35.4353 40 34.8997V22.499C40.0011 21.9633 39.7169 21.4651 39.2481 21.1812L39.248 21.1806ZM17.5999 33.3495H14.3998C13.8282 33.3495 13.3 33.0539 13.0142 32.5743C12.7284 32.0947 12.7284 31.5039 13.0142 31.0243C13.3 30.5447 13.8282 30.2491 14.3998 30.2491H17.5999C18.1715 30.2491 18.6998 30.5447 18.9856 31.0243C19.2714 31.5038 19.2714 32.0947 18.9856 32.5743C18.6998 33.0539 18.1716 33.3495 17.5999 33.3495ZM17.5999 19.3982C16.7511 19.3982 15.9374 19.0715 15.3371 18.4902C14.7371 17.9086 14.3998 17.1202 14.3998 16.2978C14.3998 15.4757 14.7371 14.687 15.3371 14.1057C15.9373 13.5242 16.7511 13.1977 17.5999 13.1977C18.4485 13.1977 19.2625 13.5242 19.8625 14.1057C20.4628 14.687 20.7998 15.4757 20.7998 16.2978C20.7998 17.1202 20.4628 17.9086 19.8625 18.4902C19.2625 19.0715 18.4485 19.3982 17.5999 19.3982ZM25.5999 19.3982C25.1756 19.3982 24.7688 19.235 24.4688 18.9441C24.1685 18.6534 24 18.2592 24 17.8481C24 17.4368 24.1685 17.0426 24.4688 16.752C24.7688 16.4613 25.1757 16.2978 25.5999 16.2978C26.0245 16.2978 26.4313 16.4613 26.7313 16.752C27.0313 17.0426 27.2001 17.4369 27.2001 17.8481C27.2001 18.2592 27.0313 18.6534 26.7313 18.9441C26.4313 19.235 26.0244 19.3982 25.5999 19.3982Z" fill="#04BFCE"/>
</svg>
