<svg width="48" height="48" viewBox="0 0 48 48" fill="none" xmlns="http://www.w3.org/2000/svg">
<path d="M24.143 26.5667C28.8793 26.5667 32.6606 26.223 35.4489 25.7644L35.2195 21.563C34.9904 17.3233 31.4764 14.0003 27.2366 14.0003L21.049 14C16.8092 14 13.2952 17.323 13.066 21.5627L12.8369 25.8025C15.6251 26.2229 19.4063 26.5666 24.1428 26.5666L24.143 26.5667Z" fill="#04BFCE"/>
<path d="M37.1676 28.0945C32.2786 29.0494 26.0145 29.164 24.1429 29.164C22.2713 29.164 16.0072 29.0875 11.1182 28.0945C7.94791 28.7819 6 29.7368 6 30.8065C6 32.9838 14.1357 34.7025 24.143 34.7025C34.1502 34.7025 42.2859 32.9454 42.2859 30.8065C42.2859 29.7752 40.338 28.8203 37.1678 28.0945H37.1676Z" fill="#04BFCE"/>
</svg>
