<svg width="15" height="24" viewBox="0 0 15 24" fill="none" xmlns="http://www.w3.org/2000/svg">
<g clip-path="url(#clip0_13_8942)">
<path d="M13.587 22.8069C13.7166 22.9103 13.8728 22.9752 14.0378 22.9942C14.2028 23.0132 14.3698 22.9855 14.5197 22.9143C14.6696 22.8431 14.7963 22.7312 14.8853 22.5916C14.9743 22.452 15.022 22.2901 15.023 22.1247L15.023 2.7604H19.4415C19.6759 2.7604 19.9006 2.66766 20.0664 2.50259C20.2321 2.33752 20.3252 2.11364 20.3252 1.8802C20.3252 1.64675 20.2321 1.42287 20.0664 1.2578C19.9006 1.09274 19.6759 1 19.4415 1L15.023 1L0.883704 1C0.649331 1 0.424558 1.09274 0.258831 1.2578C0.0931044 1.42287 0 1.64675 0 1.8802L0 22.1247C0.000932006 22.2901 0.0486393 22.452 0.137653 22.5916C0.226667 22.7312 0.353385 22.8431 0.50328 22.9143C0.653175 22.9855 0.82018 23.0132 0.985152 22.9942C1.15012 22.9752 1.30638 22.9103 1.43602 22.8069L7.51149 17.9658L13.587 22.8069Z" fill="#404040"/>
</g>
<defs>
<clipPath id="clip0_13_8942">
<rect width="15" height="24" fill="white"/>
</clipPath>
</defs>
</svg>
