<svg width="48" height="48" viewBox="0 0 48 48" fill="none" xmlns="http://www.w3.org/2000/svg">
<path d="M8.05012 42C7.48346 42 7.00812 41.808 6.62412 41.424C6.24146 41.0413 6.05012 40.5666 6.05012 40C6.05012 39.4333 6.24146 38.9586 6.62412 38.576C7.00812 38.192 7.48346 38 8.05012 38H40.0501C40.6168 38 41.0921 38.192 41.4761 38.576C41.8588 38.9586 42.0501 39.4333 42.0501 40C42.0501 40.5666 41.8588 41.0413 41.4761 41.424C41.0921 41.808 40.6168 42 40.0501 42H8.05012ZM11.2001 31.6C10.7668 31.7333 10.3501 31.7166 9.95012 31.55C9.55012 31.3833 9.23346 31.1 9.00012 30.7L5.20012 24.25C4.86679 23.7166 4.80879 23.2166 5.02612 22.75C5.24212 22.2833 5.66679 21.9833 6.30012 21.85C6.53346 21.7833 6.80012 21.8 7.10012 21.9C7.40012 22 7.63346 22.1333 7.80012 22.3L10.6501 24.8L20.2501 22.2L13.5001 10.75C13.1335 10.1166 13.0668 9.50797 13.3001 8.92397C13.5335 8.3413 14.0001 7.9333 14.7001 7.69997C15.0668 7.56664 15.4835 7.55797 15.9501 7.67397C16.4168 7.7913 16.8001 7.9833 17.1001 8.24997L29.7501 19.6L39.7501 16.9C40.8168 16.6333 41.7835 16.85 42.6501 17.55C43.5168 18.25 43.9501 19.1666 43.9501 20.3C43.9501 21.0333 43.7255 21.6833 43.2761 22.25C42.8255 22.8166 42.2501 23.2 41.5501 23.4L11.2001 31.6Z" fill="#04BFCE"/>
</svg>
