<svg width="20" height="20" viewBox="0 0 20 20" fill="none" xmlns="http://www.w3.org/2000/svg">
<path d="M4.30168 17.9998H8.22391C8.63876 17.9998 8.97811 17.6605 8.97811 17.2456V14.6823H11.6935V17.2456C11.6935 17.6605 12.0329 17.9998 12.4477 17.9998L16.37 18C17.1054 18 17.6899 17.4154 17.6899 16.68V9.23157C17.6899 8.70358 17.4825 8.19441 17.0864 7.81731L11.4859 2.48082C10.8448 1.83973 9.8265 1.83973 9.16658 2.48082L3.58496 7.83617C3.20785 8.19448 3.00043 8.72244 3.00043 9.2316V16.6801C2.98162 17.4153 3.58506 17.9998 4.30168 17.9998ZM4.49018 9.23141C4.49018 9.11829 4.54674 8.98623 4.62224 8.91086L10.2227 3.55552C10.2793 3.49895 10.3736 3.49895 10.4302 3.55552L16.0306 8.91086C16.1249 8.98623 16.1627 9.11829 16.1627 9.23141V16.4913H13.2021V13.9279C13.2021 13.5131 12.8627 13.1737 12.4479 13.1737L8.22396 13.1736C7.80911 13.1736 7.46976 13.513 7.46976 13.9278V16.4912L4.49024 16.4913L4.49018 9.23141Z" fill="#404040"/>
</svg>
