<svg width="20" height="20" viewBox="0 0 20 20" fill="none" xmlns="http://www.w3.org/2000/svg">
<path d="M2.24512 6.25C2.65933 6.25 2.99512 5.91421 2.99512 5.5C2.99512 5.08579 2.65933 4.75 2.24512 4.75C1.8309 4.75 1.49512 5.08579 1.49512 5.5C1.49512 5.91421 1.8309 6.25 2.24512 6.25Z" fill="#7B30E6"/>
<rect x="5.99512" y="4.75" width="12.5107" height="1.5" rx="0.75" fill="#7B30E6"/>
<path d="M2.24512 10.75C2.65933 10.75 2.99512 10.4142 2.99512 10C2.99512 9.58579 2.65933 9.25 2.24512 9.25C1.8309 9.25 1.49512 9.58579 1.49512 10C1.49512 10.4142 1.8309 10.75 2.24512 10.75Z" fill="#7B30E6"/>
<rect x="5.99512" y="9.25" width="12.5107" height="1.5" rx="0.75" fill="#7B30E6"/>
<path d="M2.24512 15.25C2.65933 15.25 2.99512 14.9142 2.99512 14.5C2.99512 14.0858 2.65933 13.75 2.24512 13.75C1.8309 13.75 1.49512 14.0858 1.49512 14.5C1.49512 14.9142 1.8309 15.25 2.24512 15.25Z" fill="#7B30E6"/>
<rect x="5.99512" y="13.75" width="12.5107" height="1.5" rx="0.75" fill="#7B30E6"/>
</svg>
