<svg width="27" height="27" viewBox="0 0 27 27" fill="none" xmlns="http://www.w3.org/2000/svg">
<path d="M24.6376 21.0975L24.3826 20.8725C23.6592 20.2279 23.026 19.4888 22.5001 18.675C21.9258 17.5519 21.5815 16.3254 21.4876 15.0675V11.3625C21.4926 9.3867 20.7759 7.47709 19.4722 5.99247C18.1684 4.50784 16.3675 3.55038 14.4076 3.29999V2.33249C14.4076 2.06694 14.3021 1.81227 14.1143 1.6245C13.9266 1.43673 13.6719 1.33124 13.4063 1.33124C13.1408 1.33124 12.8861 1.43673 12.6984 1.6245C12.5106 1.81227 12.4051 2.06694 12.4051 2.33249V3.31499C10.4628 3.58343 8.68358 4.54668 7.39699 6.02632C6.11041 7.50596 5.40365 9.40172 5.4076 11.3625V15.0675C5.31366 16.3254 4.96943 17.5519 4.3951 18.675C3.87826 19.4867 3.25524 20.2258 2.5426 20.8725L2.2876 21.0975V23.2125H24.6376V21.0975Z" fill="#737373"/>
<path d="M11.4902 24C11.556 24.4754 11.7916 24.911 12.1534 25.2262C12.5153 25.5415 12.979 25.7151 13.459 25.7151C13.9389 25.7151 14.4026 25.5415 14.7645 25.2262C15.1264 24.911 15.362 24.4754 15.4277 24H11.4902Z" fill="#737373"/>
</svg>
