<svg width="48" height="48" viewBox="0 0 48 48" fill="none" xmlns="http://www.w3.org/2000/svg">
<path fill-rule="evenodd" clip-rule="evenodd" d="M33.7282 28.8726V16.8644C33.7282 15.2057 32.385 13.8624 30.7262 13.8624H17.002C15.3432 13.8624 14 15.2057 14 16.8644V28.8726C14 30.1234 14.4974 31.3241 15.3811 32.2092C16.2662 33.0927 17.4673 33.5903 18.7177 33.5903H29.0106C30.2614 33.5903 31.4621 33.0929 32.3472 32.2092C33.2307 31.3241 33.7283 30.1231 33.7283 28.8726H33.7282Z" fill="#04BFCE"/>
<path fill-rule="evenodd" clip-rule="evenodd" d="M22.5771 37.4496V42.5961C22.5771 43.3063 23.1535 43.8827 23.8638 43.8827C24.574 43.8827 25.1504 43.3063 25.1504 42.5961V37.4496C25.1504 36.7394 24.574 36.163 23.8638 36.163C23.1535 36.163 22.5771 36.7394 22.5771 37.4496Z" fill="#04BFCE"/>
<path fill-rule="evenodd" clip-rule="evenodd" d="M20.0039 15.1485V8.28662C20.0039 7.57639 19.4275 7 18.7173 7C18.0071 7 17.4307 7.57639 17.4307 8.28662V15.1485C17.4307 15.8587 18.0071 16.4351 18.7173 16.4351C19.4275 16.4351 20.0039 15.8587 20.0039 15.1485Z" fill="#04BFCE"/>
<path fill-rule="evenodd" clip-rule="evenodd" d="M30.2969 15.1485V8.28662C30.2969 7.57639 29.7205 7 29.0103 7C28.3 7 27.7236 7.57639 27.7236 8.28662V15.1485C27.7236 15.8587 28.3 16.4351 29.0103 16.4351C29.7205 16.4351 30.2969 15.8587 30.2969 15.1485Z" fill="#04BFCE"/>
<path fill-rule="evenodd" clip-rule="evenodd" d="M18.2886 35.2917V35.7343C18.2886 37.3931 19.6335 38.7363 21.2906 38.7363H26.4371C28.0941 38.7363 29.4391 37.3931 29.4391 35.7343V35.2917C29.2966 35.3004 29.1542 35.3055 29.0103 35.3055H18.7173C18.5732 35.3055 18.4307 35.3004 18.2886 35.2917Z" fill="#04BFCE"/>
</svg>
