<svg width="22" height="22" viewBox="0 0 22 22" fill="none" xmlns="http://www.w3.org/2000/svg">
<path fill-rule="evenodd" clip-rule="evenodd" d="M11 0C8.02252 0 7.63504 0.0146091 6.4733 0.0584093L6.46677 0.0586555C5.30099 0.118358 4.5039 0.295372 3.7948 0.576081C3.07208 0.856789 2.45096 1.22548 1.8466 1.84555C1.28704 2.39531 0.853539 3.06002 0.576081 3.79375C0.310036 4.48924 0.118358 5.30204 0.0586555 6.46782C0 7.63359 0 8.01695 0 11C0 13.9775 0.0146091 14.365 0.0584093 15.5267L0.0586555 15.5332C0.118358 16.699 0.295372 17.4961 0.576081 18.2052C0.856789 18.9279 1.22548 19.549 1.84555 20.1534C2.46563 20.7599 3.07103 21.1432 3.79375 21.4239C4.48819 21.69 5.30099 21.8816 6.46677 21.9413C7.63359 22 8.01695 22 11 22C13.9774 22 14.365 21.9854 15.5266 21.9416H15.5267L15.5332 21.9413C16.699 21.8816 17.4961 21.7046 18.2052 21.4239C18.9417 21.1524 19.6075 20.7185 20.1534 20.1544C20.713 19.6047 21.1465 18.94 21.4239 18.2062C21.69 17.5118 21.8816 16.699 21.9413 15.5332C22 14.3664 22 13.9831 22 11C22 8.02257 21.9854 7.63505 21.9416 6.47335V6.4733L21.9413 6.46677C21.8816 5.30099 21.7046 4.50286 21.4239 3.7948C21.1524 3.05835 20.7185 2.39248 20.1544 1.8466C19.6047 1.28704 18.94 0.853539 18.2062 0.576081C17.5108 0.310036 16.698 0.118358 15.5332 0.0586555L15.5039 0.0575618C14.3454 0.0144205 13.9582 0 11 0ZM5.36074 10.9854C5.36074 10.2447 5.50663 9.51122 5.79008 8.8269C6.07354 8.14258 6.489 7.52079 7.01276 6.99703C7.53651 6.47328 8.1583 6.05781 8.84262 5.77436C9.52694 5.4909 10.2604 5.34501 11.0011 5.34501C11.7418 5.34501 12.4752 5.4909 13.1596 5.77436C13.8439 6.05781 14.4657 6.47328 14.9894 6.99703C15.5132 7.52079 15.9286 8.14258 16.2121 8.8269C16.4956 9.51122 16.6414 10.2447 16.6414 10.9854C16.6414 11.7261 16.4956 12.4595 16.2121 13.1438C15.9286 13.8282 15.5132 14.4499 14.9894 14.9737C14.4657 15.4975 13.8439 15.9129 13.1596 16.1964C12.4752 16.4798 11.7418 16.6257 11.0011 16.6257C10.2604 16.6257 9.52694 16.4798 8.84262 16.1964C8.1583 15.9129 7.53651 15.4975 7.01276 14.9737C6.489 14.4499 6.07354 13.8282 5.79008 13.1438C5.50663 12.4595 5.36074 11.7261 5.36074 10.9854ZM7.33827 10.999C7.33827 11.4799 7.43298 11.956 7.617 12.4003C7.80102 12.8446 8.07075 13.2482 8.41078 13.5883C8.7508 13.9283 9.15447 14.198 9.59874 14.382C10.043 14.566 10.5192 14.6608 11 14.6608C11.4809 14.6608 11.9571 14.566 12.4013 14.382C12.8456 14.198 13.2493 13.9283 13.5893 13.5883C13.9293 13.2482 14.1991 12.8446 14.3831 12.4003C14.5671 11.956 14.6618 11.4799 14.6618 10.999C14.6618 10.0278 14.276 9.09643 13.5893 8.40971C12.9026 7.723 11.9712 7.3372 11 7.3372C10.0289 7.3372 9.09749 7.723 8.41078 8.40971C7.72406 9.09643 7.33827 10.0278 7.33827 10.999ZM17.3777 5.20545C17.214 5.26925 17.0391 5.29957 16.8634 5.29461V5.29566C16.5148 5.29566 16.1804 5.15717 15.9339 4.91065C15.6874 4.66413 15.5489 4.32978 15.5489 3.98115C15.5489 3.63252 15.6874 3.29817 15.9339 3.05165C16.1804 2.80513 16.5148 2.66664 16.8634 2.66664C17.0391 2.66168 17.214 2.69199 17.3777 2.7558C17.5415 2.8196 17.6908 2.91559 17.8168 3.0381C17.9428 3.1606 18.043 3.30713 18.1114 3.46902C18.1798 3.63091 18.215 3.80488 18.215 3.98062C18.215 4.15637 18.1798 4.33033 18.1114 4.49222C18.043 4.65411 17.9428 4.80064 17.8168 4.92315C17.6908 5.04566 17.5415 5.14165 17.3777 5.20545Z" fill="white"/>
</svg>
