<svg width="25" height="22" viewBox="0 0 25 22" fill="none" xmlns="http://www.w3.org/2000/svg">
<path fill-rule="evenodd" clip-rule="evenodd" d="M0.935228 8.60802L23.2272 0.17202C24.2522 -0.29398 25.1692 0.17202 24.7802 1.72602L21.1452 19.746C20.8652 21.02 20.1052 21.33 19.0322 20.74L13.2222 16.453C12.2973 17.3613 11.3653 18.2624 10.4262 19.156L10.3382 19.231C9.90723 19.595 9.72923 19.746 9.29223 19.746C8.84223 19.746 8.64023 19.466 8.37623 18.752L6.23223 12.196L0.655228 10.456C-0.244772 10.161 -0.276772 8.96502 0.935228 8.60802ZM19.8272 3.82302L7.13623 11.793L9.29523 18.41L9.83923 13.672L20.3702 4.19602C20.6502 3.87002 20.4482 3.40402 19.8262 3.82302H19.8272Z" fill="white"/>
</svg>
