<svg width="29" height="18" viewBox="0 0 29 18" fill="none" xmlns="http://www.w3.org/2000/svg">
<path fill-rule="evenodd" clip-rule="evenodd" d="M14.1883 17.9292H15.9135C16.208 17.8964 16.4846 17.7697 16.7074 17.5665C16.8689 17.3229 16.9513 17.0323 16.9439 16.7362C16.9439 16.7362 16.9154 14.2062 17.987 13.8282C19.0586 13.4502 20.4216 16.272 21.869 17.3622C22.4085 17.8309 23.1043 18.0559 23.8032 17.9882L27.6704 17.9292C27.6704 17.9292 29.7028 17.7981 28.742 16.0677C27.9867 14.7008 27.0128 13.4763 25.8619 12.4463C23.4273 10.0036 23.761 10.3958 26.6833 6.16478C28.4644 3.58992 29.1739 2.0048 28.9511 1.33623C28.7579 1.13067 28.517 0.979846 28.2513 0.898175C27.9857 0.816503 27.7043 0.806721 27.434 0.869762L23.0663 0.899258C22.875 0.868298 22.6793 0.90404 22.5099 1.00085C22.341 1.13195 22.2058 1.30673 22.1203 1.50993C21.673 2.78147 21.1334 4.01616 20.506 5.20344C18.5729 8.78115 17.7927 8.97124 17.4728 8.75275C16.7359 8.22838 16.9164 6.67276 16.9164 5.55302C16.9164 2.0911 17.4042 0.637074 15.9842 0.259093C15.3151 0.091727 14.6272 0.0182395 13.9392 0.0406061C12.7193 -0.0770305 11.489 0.0615678 10.3221 0.448083C9.82066 0.710267 9.44586 1.29144 9.68129 1.33514C10.1775 1.38757 10.6368 1.63774 10.9619 2.03429C11.2628 2.70068 11.4106 3.43261 11.3937 4.17109C11.3937 4.17109 11.6577 8.25788 10.7951 8.76695C10.2102 9.11653 9.40363 8.40317 7.66479 5.15974C7.08059 4.02564 6.56475 2.85523 6.1202 1.65522C6.03896 1.45458 5.9152 1.27539 5.75808 1.13085C5.56029 0.981547 5.33138 0.882387 5.08978 0.841359L0.942741 0.869762C0.634355 0.868518 0.334834 0.976452 0.0939076 1.17564C0.0370788 1.30001 0.00533626 1.43506 0.000616817 1.57255C-0.00410263 1.71003 0.0183 1.84707 0.0664578 1.9753C0.0664578 1.9753 3.32243 10.221 6.99543 14.381C7.88196 15.4672 8.98201 16.3454 10.2223 16.9573C11.4626 17.5691 12.8146 17.9004 14.1883 17.9292Z" fill="white"/>
</svg>
