<svg width="249" height="204" viewBox="0 0 249 204" fill="none" xmlns="http://www.w3.org/2000/svg">
<path d="M207.528 168.761H156.304L130.728 199.669C126.859 204.346 119.641 204.225 115.933 199.422L92.2551 168.761H41.5601C18.812 168.761 0.371094 150.347 0.371094 127.633V41.1379C0.371094 18.4231 18.812 0.00799561 41.5601 0.00799561H207.528C230.277 0.00799561 248.717 18.4231 248.717 41.1379V127.633C248.717 150.347 230.277 168.761 207.528 168.761Z" fill="#04BFCE"/>
<path d="M157.136 59.6799C157.136 77.6523 142.545 92.2233 124.545 92.2233C106.544 92.2233 91.9531 77.6523 91.9531 59.6799C91.9531 41.7058 106.544 27.1366 124.545 27.1366C142.545 27.1366 157.136 41.7058 157.136 59.6799Z" fill="white"/>
<path d="M180.549 131.634C177.385 111.338 159.807 95.8054 138.595 95.8054H110.492C89.2797 95.8054 71.7017 111.338 68.5391 131.634H180.549Z" fill="white"/>
</svg>
