<svg width="57" height="38" viewBox="0 0 57 38" fill="none" xmlns="http://www.w3.org/2000/svg">
<path d="M51.897 37.9664C49.2685 37.9664 47.7097 36.6218 47.5904 34.6854H50.1035C50.1035 35.331 50.4613 36.1902 52.0163 36.2435C53.094 36.2435 53.6903 35.5982 53.6903 35.113C53.5709 34.3605 52.6127 34.3072 51.6583 34.1427C50.5807 33.9866 49.7456 33.7686 49.1452 33.5013C48.3102 33.0697 47.8289 32.1528 47.8289 31.1867C47.8289 29.4638 49.2685 28.1192 51.7776 28.1192C54.1716 28.1192 55.7264 29.357 55.8414 31.24H53.4518C53.4518 30.7588 53.3324 29.949 51.8968 29.949C50.9385 29.949 50.3422 30.1093 50.2228 30.8082C50.2228 31.7786 52.2548 31.7251 53.8096 32.0992C55.2451 32.4775 56.2034 33.3903 56.2034 34.6854C56.2034 37.0537 54.2907 37.9664 51.897 37.9664ZM6.1001 22.0775L14.3514 17.2875L18.7771 24.8775H7.65491" fill="black"/>
<path d="M23.4512 37.6809V28.1011V37.6809Z" fill="black"/>
<path d="M23.4512 37.6809V28.1011" stroke="black" stroke-width="2.50299"/>
<path d="M2.27068 33.0327C2.27068 34.5374 3.58681 35.775 5.01816 35.775C6.5771 35.775 7.76995 34.5374 7.76995 33.0327C7.76995 31.5813 6.5771 30.2903 5.01816 30.2903C3.58681 30.2903 2.27068 31.5813 2.27068 33.0327ZM4.89901 37.983C2.27049 37.983 0 35.775 0 33.0327C0 30.2903 2.27068 28.1359 4.89901 28.1359C5.97664 28.1359 6.93494 28.4073 7.76995 28.9951V28.2427H10.1639V37.765H7.77014V37.173C7.05446 37.7116 5.97664 37.983 4.89901 37.983ZM36.8356 24.8753L25.3555 4.86046L33.6066 0.0170898L47.9578 24.8753M13.2735 33.0327C13.2735 34.5374 14.4707 35.775 16.0253 35.775C17.4567 35.775 18.7771 34.5374 18.7771 33.0327C18.7771 31.5813 17.4567 30.2903 16.0253 30.2903C14.4705 30.2903 13.2735 31.5813 13.2735 33.0327ZM15.906 37.983C13.1542 37.983 11.003 35.775 11.003 33.0327C11.003 30.2903 13.1542 28.1359 15.906 28.1359C16.9795 28.1359 17.938 28.4073 18.7771 28.9951V24.9617H21.167V37.765H18.7769V37.173C17.9378 37.7116 16.9797 37.983 15.906 37.983ZM15.7881 13.5228L24.1586 8.79051L33.3683 24.8748H24.6359V27.243H22.2459V24.8748M54.6529 27.3175C54.0524 27.3175 53.4561 26.7789 53.4561 26.1334C53.4561 25.4879 54.0524 24.9493 54.6529 24.9493C55.3686 24.9493 55.8501 25.4881 55.8501 26.1334C55.8501 26.7788 55.3686 27.3175 54.6529 27.3175ZM54.6529 25.1139C54.0524 25.1139 53.6946 25.5948 53.6946 26.1334C53.6946 26.672 54.0524 27.1572 54.6529 27.1572C55.2494 27.1572 55.6073 26.6722 55.6073 26.1334C55.6073 25.5947 55.2494 25.1139 54.6529 25.1139Z" fill="black"/>
<path d="M54.8994 26.7831L54.6607 26.2445H54.4222V26.7831H54.2412V25.492H54.7801C54.8994 25.492 55.1379 25.6566 55.1379 25.8703C55.1379 26.084 55.0186 26.1911 54.8994 26.2445L55.1379 26.7831M54.6607 25.6566H54.4222V26.0842H54.6607C54.8994 26.0842 54.8994 26.0308 54.8994 25.8703C54.8994 25.7594 54.8994 25.6566 54.6607 25.6566ZM38.8576 33.0326C38.8576 34.5374 40.0547 35.775 41.6094 35.775C43.0448 35.775 44.357 34.5374 44.357 33.0326C44.357 31.5813 43.0448 30.2903 41.6094 30.2903C40.0546 30.2903 38.8576 31.5813 38.8576 33.0326ZM41.4861 37.9829C38.7384 37.9829 36.5871 35.775 36.5871 33.0326C36.5871 30.2903 38.7384 28.1359 41.4859 28.1359C42.5637 28.1359 43.522 28.4073 44.357 28.9951V28.2426H46.6317V37.765H44.3572V37.173C43.522 37.7116 42.5639 37.9829 41.4861 37.9829ZM27.863 33.0326C27.863 34.5374 29.1791 35.775 30.6146 35.775C32.1696 35.775 33.3664 34.5374 33.3664 33.0326C33.3664 31.5813 32.1694 30.2903 30.6146 30.2903C29.1791 30.2903 27.863 31.5813 27.863 33.0326ZM33.3664 24.9617H35.7562V37.765H33.3664V37.173C32.6466 37.7116 31.6883 37.9829 30.6146 37.9829C27.863 37.9829 25.5923 35.775 25.5923 33.0326C25.5923 30.2903 27.863 28.1359 30.6146 28.1359C31.6881 28.1359 32.6466 28.4073 33.3664 28.9951V24.9617Z" fill="black"/>
</svg>
