<svg width="64" height="15" viewBox="0 0 64 15" fill="none" xmlns="http://www.w3.org/2000/svg">
<g clip-path="url(#clip0_41_4610)">
<path d="M15.9805 11.1761V1.24365H21.8008V2.48954H17.1859V5.54265H21.3298V6.78742H17.1859V9.89991H22.1241V11.1447H15.9805V11.1761ZM28.2377 11.1761L26.238 8.5375L24.2405 11.1761H22.8296L25.5625 7.64789L22.6829 4.00209H24.2716L26.238 6.72916L28.2377 4.00209H29.7953L27.0623 7.64789L29.6487 11.1761H28.2377ZM31.5884 10.1083V15H30.383V7.67815C30.383 5.81043 31.7939 3.82395 33.9992 3.82395C36.2323 3.82395 37.9087 5.24686 37.9087 7.58851C37.9087 9.8719 36.2034 11.4427 34.2636 11.4427C33.3226 11.4427 32.0595 11.027 31.5884 10.1083ZM36.6444 7.58851C36.6444 5.98857 35.6157 5.03959 33.7937 5.1281C32.9116 5.15835 31.5595 5.81043 31.6773 8.0927C31.7062 8.8344 32.4705 10.2271 34.1459 10.2271C35.5868 10.2271 36.6444 9.39797 36.6444 7.58851ZM38.9363 11.1761V4.00209H40.1429V4.77293C40.7306 4.0906 41.6415 3.8542 42.6114 3.8542V5.15835C42.4648 5.1281 41.0238 4.95108 40.1429 6.84792V11.2063H38.9363V11.1761ZM42.9358 7.58851C42.9358 5.51352 44.4045 3.82395 46.4331 3.82395C48.9606 3.82395 49.9016 5.51352 49.9016 7.67815V8.27084H44.2579C44.3467 9.63437 45.551 10.3458 46.6687 10.3167C47.4908 10.2865 48.0496 10.0489 48.6373 9.45623L49.4305 10.2865C48.6962 10.9979 47.7552 11.4718 46.6087 11.4718C44.4634 11.4427 42.9358 9.84165 42.9358 7.58851ZM46.3443 5.03959C45.1977 5.03959 44.3167 6.04795 44.2579 7.14371H48.6373C48.6373 6.07708 47.8729 5.03959 46.3443 5.03959ZM50.5182 10.1677L51.4003 9.36772C51.3714 9.36772 51.8413 9.84165 51.9002 9.8719C52.1057 10.0489 52.3112 10.1677 52.5757 10.2271C53.34 10.4343 54.722 10.375 54.8398 9.30834C54.8987 8.71452 54.4576 8.3896 53.9577 8.18233C53.3111 7.9448 52.6057 7.85517 51.958 7.55938C51.2247 7.23334 50.7537 6.66978 50.7537 5.83956C50.7537 3.67605 53.8111 3.31977 55.192 4.32701C55.2509 4.38751 55.9274 5.01046 55.8974 5.01046L55.0165 5.7208C54.5754 5.18748 54.1632 4.92083 53.2234 4.92083C52.7523 4.92083 52.1057 5.1281 51.988 5.63228C51.8124 6.34374 52.6057 6.6104 53.1345 6.75941C53.8399 6.93644 54.6043 7.0552 55.222 7.44062C56.0741 7.97393 56.2796 9.13019 55.9563 10.0198C55.6041 10.9979 54.5454 11.3833 53.6055 11.4125C52.4879 11.4718 51.518 11.1167 50.7248 10.3167C50.6659 10.3167 50.5182 10.1677 50.5182 10.1677ZM56.7207 10.1677L57.6028 9.36772C57.5728 9.36772 58.0438 9.84165 58.1027 9.8719C58.3082 10.0489 58.5138 10.1677 58.7782 10.2271C59.5425 10.4343 60.9246 10.375 61.0412 9.30834C61.1001 8.71452 60.6602 8.3896 60.1602 8.18233C59.5136 7.9448 58.8082 7.85517 58.1605 7.55938C57.4272 7.23334 56.9562 6.66978 56.9562 5.83956C56.9562 3.67605 60.0125 3.31977 61.3945 4.32701C61.4534 4.38751 62.1288 5.01046 62.1 5.01046L61.2179 5.7208C60.7768 5.18748 60.3657 4.92083 59.4248 4.92083C58.9548 4.92083 58.3082 5.1281 58.1905 5.63228C58.0138 6.34374 58.8082 6.6104 59.337 6.75941C60.0425 6.93644 60.8068 7.0552 61.4234 7.44062C62.2766 7.97393 62.4821 9.13019 62.1588 10.0198C61.8056 10.9979 60.7479 11.3833 59.8069 11.4125C58.6904 11.4718 57.7205 11.1167 56.9262 10.3167C56.8673 10.3167 56.7207 10.1677 56.7207 10.1677ZM62.4521 4.00209V3.23125H62.1877V3.08336H62.8932V3.23125H62.6288V4.00209H62.4521ZM63.7753 4.00209V3.29063L63.5109 4.00209H63.452L63.1876 3.29063V4.00209H63.041V3.08336H63.2754L63.5109 3.70518L63.7464 3.08336H63.9808V4.00209H63.7753Z" fill="#E43225"/>
<path d="M7.80802 11.1761L6.92702 8.80415H2.16321L1.28221 11.1761H0.019043L3.84076 1.24365H5.22169L9.01342 11.1749L7.80802 11.1761ZM4.48623 2.66657L2.69536 7.58851H6.4282L4.48623 2.66657ZM9.80665 11.1761V1.24365H11.042V11.1749L9.80665 11.1761ZM12.894 11.1761V4.1511H14.1283V11.1761H12.894ZM15.3037 1.86772V1.80834V1.74895C14.849 1.73278 14.4172 1.54329 14.0956 1.21871C13.774 0.894126 13.5863 0.458606 13.5706 0L13.3928 0C13.3771 0.458606 13.1895 0.894126 12.8678 1.21871C12.5462 1.54329 12.1145 1.73278 11.6597 1.74895V1.86772C12.1143 1.88388 12.5459 2.07321 12.8675 2.39755C13.1891 2.7219 13.3768 3.15714 13.3928 3.61555H13.5706C13.5866 3.15714 13.7744 2.7219 14.096 2.39755C14.4176 2.07321 14.8492 1.88388 15.3037 1.86772Z" fill="#F7971D"/>
</g>
<defs>
<clipPath id="clip0_41_4610">
<rect width="64" height="15" fill="white"/>
</clipPath>
</defs>
</svg>
