<svg width="38" height="39" viewBox="0 0 38 39" fill="none" xmlns="http://www.w3.org/2000/svg">
<path d="M32.5747 31.5059C16.7925 39.017 6.99786 32.7327 0.727997 28.9158C0.340021 28.6752 -0.319404 28.972 0.252737 29.6292C2.34154 32.1619 9.18699 38.2665 18.1223 38.2665C27.0637 38.2665 32.3831 33.3876 33.0485 32.5365C33.7094 31.6927 33.2426 31.2271 32.5746 31.5059H32.5747ZM37.0072 29.0581C36.5833 28.5062 34.43 28.4033 33.0749 28.5698C31.7177 28.7315 29.6804 29.561 29.8576 30.059C29.9484 30.2456 30.134 30.1619 31.0663 30.0781C32.0013 29.9848 34.6204 29.6542 35.1661 30.3677C35.7144 31.086 34.3308 34.5081 34.0781 35.06C33.8339 35.6119 34.1713 35.7542 34.63 35.3866C35.0823 35.0192 35.9011 34.0676 36.4506 32.721C36.9964 31.3671 37.3293 29.4783 37.0072 29.0581Z" fill="#FF9900"/>
<path fill-rule="evenodd" clip-rule="evenodd" d="M21.9633 16.1797C21.9633 18.1505 22.0131 19.794 21.017 21.5442C20.213 22.9673 18.9394 23.8424 17.5165 23.8424C15.574 23.8424 14.4428 22.3624 14.4428 20.1783C14.4428 15.8666 18.3061 15.084 21.9633 15.084V16.1797ZM27.0646 28.5098C26.7301 28.8085 26.2463 28.83 25.8693 28.6307C24.1902 27.2362 23.8913 26.5888 22.9664 25.2582C20.1917 28.09 18.2279 28.9366 14.6279 28.9366C10.3732 28.9366 7.05762 26.3112 7.05762 21.0533C7.05762 16.9482 9.28469 14.152 12.4506 12.786C15.197 11.5763 19.0319 11.3629 21.9633 11.0287V10.374C21.9633 9.17155 22.0557 7.74863 21.3514 6.70992C20.7323 5.77785 19.5513 5.39362 18.5124 5.39362C16.5844 5.39362 14.8626 6.38253 14.4428 8.4316C14.3573 8.88706 14.023 9.33532 13.5677 9.35662L8.65841 8.83022C8.24584 8.73754 7.79053 8.40325 7.90436 7.76992C9.03559 1.82205 14.4071 0.0289917 19.2167 0.0289917C21.6785 0.0289917 24.8943 0.683617 26.8368 2.54776C29.2985 4.84578 29.0637 7.91224 29.0637 11.2491V19.1324C29.0637 21.5016 30.0456 22.5403 30.9704 23.8211C31.2977 24.2764 31.3689 24.8244 30.9562 25.1657C29.9245 26.0266 28.0889 27.6275 27.0787 28.524L27.0644 28.5098" fill="black"/>
<path d="M32.5747 31.5059C16.7925 39.017 6.99786 32.7327 0.727997 28.9158C0.340021 28.6752 -0.319404 28.972 0.252737 29.6292C2.34154 32.1619 9.18699 38.2665 18.1223 38.2665C27.0637 38.2665 32.3831 33.3876 33.0485 32.5365C33.7094 31.6927 33.2426 31.2271 32.5746 31.5059H32.5747ZM37.0072 29.0581C36.5833 28.5062 34.43 28.4033 33.0749 28.5698C31.7177 28.7315 29.6804 29.561 29.8576 30.059C29.9484 30.2456 30.134 30.1619 31.0663 30.0781C32.0013 29.9848 34.6204 29.6542 35.1661 30.3677C35.7144 31.086 34.3308 34.5081 34.0781 35.06C33.8339 35.6119 34.1713 35.7542 34.63 35.3866C35.0823 35.0192 35.9011 34.0676 36.4506 32.721C36.9964 31.3671 37.3293 29.4783 37.0072 29.0581Z" fill="#FF9900"/>
<path fill-rule="evenodd" clip-rule="evenodd" d="M21.9633 16.1797C21.9633 18.1505 22.0131 19.794 21.017 21.5442C20.213 22.9673 18.9394 23.8424 17.5165 23.8424C15.574 23.8424 14.4428 22.3624 14.4428 20.1783C14.4428 15.8666 18.3061 15.084 21.9633 15.084V16.1797ZM27.0646 28.5098C26.7301 28.8085 26.2463 28.83 25.8693 28.6307C24.1902 27.2362 23.8913 26.5888 22.9664 25.2582C20.1917 28.09 18.2279 28.9366 14.6279 28.9366C10.3732 28.9366 7.05762 26.3112 7.05762 21.0533C7.05762 16.9482 9.28469 14.152 12.4506 12.786C15.197 11.5763 19.0319 11.3629 21.9633 11.0287V10.374C21.9633 9.17155 22.0557 7.74863 21.3514 6.70992C20.7323 5.77785 19.5513 5.39362 18.5124 5.39362C16.5844 5.39362 14.8626 6.38253 14.4428 8.4316C14.3573 8.88706 14.023 9.33532 13.5677 9.35662L8.65841 8.83022C8.24584 8.73754 7.79053 8.40325 7.90436 7.76992C9.03559 1.82205 14.4071 0.0289917 19.2167 0.0289917C21.6785 0.0289917 24.8943 0.683617 26.8368 2.54776C29.2985 4.84578 29.0637 7.91224 29.0637 11.2491V19.1324C29.0637 21.5016 30.0456 22.5403 30.9704 23.8211C31.2977 24.2764 31.3689 24.8244 30.9562 25.1657C29.9245 26.0266 28.0889 27.6275 27.0787 28.524L27.0644 28.5098" fill="black"/>
</svg>
