<svg width="40" height="51" viewBox="0 0 40 51" fill="none" xmlns="http://www.w3.org/2000/svg">
<path d="M23.0582 38.3701C22.8254 38.3701 22.5926 38.3701 22.3598 38.3701C22.0952 38.3483 21.8307 38.4465 21.5555 38.4356C21.1005 38.4138 20.6561 38.4574 20.201 38.4683C19.619 38.4793 19.0264 38.512 18.4444 38.5448C17.7249 38.5884 17.0053 38.6321 16.2857 38.6976C14.9312 38.8067 13.5767 38.9268 12.2328 39.1451C10.5714 39.4071 8.9312 39.7783 7.29099 40.1603C7.14284 40.1931 6.99469 40.2477 6.84655 40.2367C6.64549 40.2258 6.5185 40.1167 6.46559 39.9202C6.4021 39.6691 6.45501 39.418 6.47618 39.1779C6.57141 38.0208 6.75131 36.8746 6.98411 35.7393C7.29099 34.2656 7.62962 32.8138 8.0529 31.3729C8.0529 31.351 8.06348 31.3401 8.06348 31.3183C8.08464 31.2091 8.06348 31.1873 7.96824 31.2091C7.79893 31.2528 7.65078 31.351 7.56612 31.5257C7.47089 31.7113 7.38623 31.9078 7.30157 32.1043C6.97353 32.923 6.68782 33.7526 6.4021 34.5822C6.10581 35.4227 5.82009 36.2633 5.54496 37.1147C5.32274 37.8025 5.15342 38.512 4.97353 39.2106C4.88887 39.5381 4.79364 39.8765 4.71956 40.2149C4.68782 40.3677 4.68782 40.3677 4.83596 40.3896C5.65078 40.4987 6.45501 40.6079 7.26983 40.7171C8.2857 40.848 9.31215 40.99 10.328 41.1209C11.6296 41.2956 12.9206 41.4703 14.2222 41.634C15.0264 41.7432 15.8201 41.8523 16.6243 41.9506C16.6878 41.9615 16.7619 41.9506 16.8254 42.0161C16.8042 42.0597 16.7725 42.0488 16.7407 42.0488C15.7778 42.0488 14.8148 42.0488 13.8413 42.0488C13.8307 42.0488 13.8201 42.0488 13.7989 42.0488C13.5026 42.0488 13.1958 42.0379 12.8995 42.0488C12.3704 42.0706 11.8518 41.9615 11.3227 41.896C10.836 41.8414 10.3492 41.765 9.873 41.6995C9.38623 41.634 8.89946 41.5685 8.42327 41.503C7.94708 41.4375 7.4603 41.372 6.98411 41.3065C6.50792 41.241 6.03173 41.1755 5.55554 41.11C5.06877 41.0445 4.582 40.979 4.08464 40.9135C3.60845 40.848 3.12168 40.7825 2.64549 40.7171C2.1693 40.6516 1.69311 40.5861 1.21692 40.5206C0.941784 40.4878 0.656069 40.4551 0.380937 40.4114C0.222207 40.3896 0.179879 40.3132 0.179879 40.1276C0.179879 38.4683 0.179879 36.82 0.169297 35.1608C0.137551 25.8275 0.116387 16.4942 0.0846406 7.16098C0.0846406 5.74188 0.0740586 4.31188 0.0740586 2.89278C0.0740586 2.84912 0.0740586 2.79454 0.0740586 2.75087C0.0528945 2.35789 0.0740586 1.954 0.0634766 1.56102C0.0634766 1.48461 0.0634766 1.40819 0.0634766 1.3427C0.0634766 0.971551 0.0634766 0.589488 0.0634766 0.21834C0.0634766 0.131012 0.0740586 0.0545989 0.179879 0.0218506C0.275117 0.0218506 0.370355 0.0218506 0.455011 0.0218506C0.86771 0.0545989 1.28041 0.109179 1.70369 0.16376C3.03702 0.349333 4.37036 0.523991 5.70369 0.709565C7.42856 0.938803 9.14284 1.16804 10.8677 1.40819C11.1958 1.45186 11.4815 1.39728 11.7883 1.26629C13.1005 0.698649 14.4656 0.305669 15.8836 0.141928C17.037 1.83899e-05 18.1905 0.0764311 19.3227 0.36025C20.7513 0.709565 22.0846 1.28812 23.3122 2.11774C23.7989 2.44522 24.2645 2.80545 24.6878 3.20935C24.7619 3.28576 24.8571 3.3076 24.9524 3.31851C26.4338 3.515 27.9259 3.72241 29.4074 3.9189C31.0264 4.13722 32.6455 4.35554 34.2645 4.57386C35.7566 4.77035 37.2381 4.97776 38.7301 5.17425C39.0794 5.21791 39.4391 5.27249 39.7883 5.31616C39.8942 5.32707 39.9788 5.35982 40 5.4799C40 5.54539 40 5.59998 40 5.66547C39.8942 5.97112 39.8307 6.28769 39.746 6.59334C39.0159 9.44244 38.2963 12.2915 37.5661 15.1406C36.8465 17.9897 36.1164 20.8279 35.3968 23.677C34.6772 26.4934 33.9682 29.2988 33.2487 32.1152C32.5291 34.9315 31.8201 37.737 31.1005 40.5533C30.7936 41.7868 30.4762 43.0094 30.1587 44.232C30.1164 44.3849 30.0423 44.4394 29.8942 44.4285C29.6402 44.3958 29.3757 44.3521 29.1111 44.3194C29.164 44.112 29.2169 43.9046 29.2698 43.6971C29.3016 43.6644 29.3439 43.6644 29.3862 43.6644C29.5661 43.6753 29.6085 43.6426 29.6508 43.4679C29.7354 43.1186 29.8307 42.7802 29.9153 42.4309C30.1376 41.5467 30.3704 40.6625 30.5926 39.7892C30.6137 39.7019 30.6137 39.6145 30.5926 39.5272C30.201 38.0099 29.8307 36.4925 29.4709 34.9752C29.1852 33.7526 28.8889 32.5191 28.6032 31.2965C28.4868 30.7943 28.3598 30.3031 28.2328 29.801C28.1799 29.5608 28.0529 29.3971 27.8518 29.277C27.7249 29.2006 27.5873 29.1351 27.4391 29.1023C27.2487 29.0587 27.1852 29.1242 27.2063 29.3207C27.2592 29.659 27.3122 29.9974 27.3651 30.3249C27.5238 31.2746 27.6719 32.2134 27.7778 33.174C27.8518 33.829 27.9153 34.484 27.9682 35.1389C28.0212 35.6956 28.0529 36.2524 28.0846 36.8091C28.1058 37.0711 28.0952 37.344 28.1164 37.606C28.1376 37.8461 28.1905 37.9334 28.4233 37.9771C28.6667 38.0208 28.8995 38.0535 29.1323 38.1299C29.1958 38.1518 29.2592 38.1627 29.3122 38.1954C29.3756 38.2282 29.4286 38.2609 29.418 38.3373C29.4074 38.4138 29.3545 38.4465 29.291 38.4574C29.164 38.4902 29.0264 38.4902 28.8995 38.4683C28.7196 38.4465 28.5397 38.4465 28.3598 38.4465C28.3069 38.4465 28.254 38.4465 28.201 38.4138C27.8201 38.4138 27.4286 38.4138 27.0476 38.4138C27.037 38.4247 27.0159 38.4356 27.0053 38.4465C26.5503 38.4574 26.1058 38.4902 25.6508 38.4138C25.6296 38.4138 25.619 38.4028 25.5979 38.4028C25.2592 38.4028 24.9206 38.381 24.582 38.4138C24.127 38.4574 23.6825 38.4247 23.2275 38.4356C23.164 38.4028 23.1111 38.4028 23.0582 38.3701Z" fill="#242220"/>
<path d="M0.0314179 1.32087C0.0314179 1.79026 0.0314179 2.25965 0.0314179 2.73996H0.0208359H0.0102539C0.0102539 2.27057 0.0102539 1.80118 0.0102539 1.32087C0.0208359 1.30995 0.0314179 1.30995 0.0314179 1.32087Z" fill="#EDEDEC"/>
<path d="M0.0314179 1.32087H0.0208359H0.0102539C0.0102539 0.938808 0.0102539 0.556745 0.0102539 0.163766C0.0208359 0.15285 0.0208359 0.15285 0.0314179 0.163766C0.0314179 0.545829 0.0314179 0.938808 0.0314179 1.32087Z" fill="#D5D5D4"/>
<path d="M0.0315114 0.163733H0.0103473C-0.000234671 0.0654886 -0.0108167 -0.0327563 0.137331 0.0109081C0.0950034 0.0545725 0.0420934 0.0982369 0.0315114 0.163733Z" fill="#F6F6F5"/>
<path d="M13.7879 42.0379C13.9995 42.0379 14.2112 42.027 14.4228 42.027C15.1636 42.027 15.9043 42.027 16.645 42.027C16.6874 42.027 16.7297 42.027 16.772 42.027C16.772 42.016 16.772 42.016 16.772 42.0051C16.2852 41.9396 15.7879 41.8741 15.3011 41.8086C14.8778 41.7541 14.4546 41.6886 14.0419 41.634C13.6186 41.5794 13.1847 41.5248 12.7614 41.4702C12.2747 41.4047 11.7879 41.3393 11.3011 41.2738C10.8673 41.2192 10.444 41.1646 10.0101 41.11C9.65033 41.0663 9.30112 41.0118 8.94133 40.9681C8.58154 40.9244 8.21117 40.8699 7.85138 40.8262C7.43869 40.7716 7.01541 40.717 6.60271 40.6625C6.24292 40.6188 5.88313 40.5642 5.52334 40.5205C5.24821 40.4878 4.96249 40.4441 4.68736 40.4114C4.60271 40.4005 4.63445 40.3568 4.64503 40.3131C4.77202 39.811 4.899 39.3089 5.02599 38.8067C5.22705 38.0208 5.44927 37.2348 5.70324 36.4707C6.20059 35.0079 6.69794 33.5342 7.25879 32.0933C7.35403 31.8422 7.44927 31.5912 7.61858 31.3729C7.7244 31.2309 7.89371 31.1873 8.05244 31.1545C8.14768 31.1327 8.12652 31.2309 8.10535 31.2964C8.05244 31.4929 7.98895 31.6785 7.93604 31.875C7.58683 33.0758 7.3117 34.2984 7.04715 35.521C6.87784 36.3069 6.75085 37.1038 6.63445 37.9007C6.56038 38.4683 6.50747 39.036 6.46514 39.6036C6.45456 39.7237 6.46514 39.8437 6.49689 39.9529C6.53921 40.1603 6.72969 40.2586 6.98366 40.204C7.62916 40.0621 8.26408 39.9092 8.90958 39.7673C9.88313 39.549 10.8567 39.3416 11.8408 39.1779C12.4969 39.0578 13.1636 38.9814 13.8302 38.905C14.4546 38.8395 15.0683 38.774 15.6927 38.7194C16.2641 38.6757 16.8249 38.6321 17.3964 38.5884C17.8408 38.5556 18.2852 38.5338 18.7403 38.512C19.4281 38.4792 20.1054 38.4465 20.7932 38.4247C21.1106 38.4137 21.4175 38.4137 21.735 38.4028C21.9466 38.4028 22.1583 38.3482 22.3699 38.381C22.2641 38.381 22.1688 38.3919 22.063 38.3919C21.9995 38.3919 21.9784 38.4137 21.9784 38.4792C21.9784 38.5556 21.9784 38.6321 21.9784 38.6976C21.9678 40.0293 21.9572 41.3611 21.9466 42.7038C21.8937 42.7583 21.8196 42.7365 21.7561 42.7256C21.5022 42.2671 21.1212 42.0597 20.6133 42.0597C18.444 42.0706 16.2641 42.0706 14.0948 42.0706C13.9784 42.0488 13.8831 42.0706 13.7879 42.0379Z" fill="#9B2D35"/>
<path d="M6.89943 46.7864C7.0899 46.6336 7.2698 46.4917 7.43911 46.3498C8.27509 45.6839 9.12165 45.018 9.95763 44.363C10.0634 44.2757 10.1799 44.1993 10.1481 44.0355C10.1164 43.8718 9.97879 43.8063 9.84123 43.7736C9.71424 43.7517 9.70366 43.6971 9.74599 43.588C9.78832 43.4788 9.77773 43.326 9.85181 43.2605C9.92588 43.195 10.074 43.2387 10.1799 43.2387C11.3227 43.2387 12.4656 43.2387 13.6084 43.2277C13.7142 43.2277 13.7354 43.2496 13.7142 43.3587C13.6719 43.588 13.619 43.7517 13.3333 43.7845C13.0687 43.8063 12.8571 44.0137 12.6455 44.1884C11.6508 45.0071 10.6666 45.8258 9.67191 46.6445C9.58726 46.71 9.57668 46.7536 9.64017 46.8628C10.1904 47.7361 10.7407 48.6094 11.3121 49.4718C11.5132 49.7883 11.7566 50.0503 12.0952 50.214C12.201 50.2686 12.3068 50.2905 12.4232 50.3014C12.4867 50.3014 12.4973 50.3341 12.4761 50.3887V50.3996C12.4444 50.5415 12.4444 50.7271 12.3492 50.8144C12.2539 50.9018 12.074 50.8472 11.9365 50.8472C11.3121 50.8363 10.6878 50.869 10.0634 50.8144C9.39678 50.7489 8.84652 50.4869 8.4444 49.9193C7.88355 49.1334 7.29096 48.3583 6.80419 47.5178C6.79361 47.4959 6.77244 47.4632 6.7407 47.4195C6.67721 47.6706 6.6243 47.8889 6.5608 48.1182C6.42324 48.6312 6.28567 49.1443 6.1481 49.6682C6.08461 49.9193 6.17985 50.1049 6.45498 50.2359C6.64546 50.3232 6.64546 50.3232 6.59255 50.5306C6.51848 50.8363 6.51848 50.8363 6.2116 50.8363C5.05816 50.8363 3.90472 50.8363 2.76186 50.8363C2.63488 50.8363 2.61371 50.8035 2.65604 50.6944C2.66662 50.6725 2.66662 50.6507 2.66662 50.6289C2.69837 50.4215 2.75128 50.2905 3.00525 50.2468C3.33329 50.2031 3.5026 49.9084 3.62959 49.6137C3.85181 49.1115 3.95763 48.5657 4.0952 48.0417C4.40207 46.9065 4.69837 45.7712 5.00525 44.625C5.02641 44.5595 5.03699 44.494 5.04758 44.4394C5.10049 44.0901 4.96292 43.8718 4.61371 43.7626C4.52906 43.7408 4.49731 43.719 4.52906 43.6207C4.57139 43.5007 4.5608 43.3369 4.63488 43.2496C4.71953 43.1732 4.87826 43.2277 5.00525 43.2277C6.07403 43.2277 7.14281 43.2277 8.2116 43.2168C8.33858 43.2168 8.35974 43.2496 8.31742 43.3587C8.31742 43.3697 8.31742 43.3806 8.31742 43.3806C8.28567 43.5771 8.23276 43.7408 7.98937 43.7954C7.75657 43.85 7.62959 44.0683 7.56609 44.3084C7.35445 45.1053 7.14281 45.8913 6.93117 46.6772C6.91001 46.7318 6.89943 46.7427 6.89943 46.7864Z" fill="#242220"/>
<path d="M16.6346 46.2515C17.4917 46.2515 18.3383 46.2515 19.206 46.2515C19.0578 46.8737 18.9097 47.4741 18.7615 48.0963C18.4335 47.7361 18.0208 47.6924 17.5869 47.6924C17.1637 47.6924 16.7404 47.6924 16.3171 47.6924C16.2536 47.6924 16.2113 47.7034 16.1901 47.7798C16.042 48.3692 15.8832 48.9478 15.7351 49.5373C15.6504 49.8866 15.7668 50.1267 16.0949 50.2686C16.1795 50.3014 16.1901 50.345 16.1689 50.4215C16.1372 50.5306 16.116 50.6398 16.0949 50.7489C16.0843 50.8254 16.0525 50.8472 15.9785 50.8472C14.9309 50.8472 13.8938 50.8363 12.8462 50.8472C12.7615 50.8472 12.7404 50.8363 12.7615 50.738C13.0049 49.832 13.2483 48.915 13.4917 48.009C13.7986 46.8628 14.1055 45.7166 14.4123 44.5704C14.5287 44.1338 14.3912 43.8936 13.9785 43.7736C13.915 43.7517 13.915 43.7299 13.9256 43.6753C13.9996 43.2605 13.9996 43.2605 14.4123 43.2605C16.0631 43.2605 17.7033 43.2605 19.3541 43.2605C19.7774 43.2605 20.1901 43.2605 20.6134 43.2605C20.698 43.2605 20.7298 43.2714 20.7086 43.3806C20.5605 43.9919 20.4123 44.5923 20.2642 45.2036C20.2536 45.2581 20.243 45.3236 20.1584 45.3018C20.0949 45.28 20.0102 45.3564 19.9679 45.2254C19.8938 44.9852 19.6928 44.887 19.4705 44.8324C19.3859 44.8106 19.2906 44.8106 19.206 44.8106C18.5182 44.8106 17.8303 44.8106 17.1531 44.8106C17.0896 44.8106 17.0473 44.8106 17.0261 44.8979C16.9203 45.3346 16.8039 45.7712 16.6875 46.2078C16.6451 46.1969 16.6451 46.2188 16.6346 46.2515Z" fill="#242220"/>
<path d="M27.1742 49.1334C27.0684 49.5809 26.952 49.9957 26.8885 50.4214C26.8462 50.6725 26.7404 50.738 26.5182 50.7817C25.5764 50.9454 24.6346 51.0437 23.6716 50.9891C22.8039 50.9345 21.9679 50.7489 21.2166 50.2577C19.915 49.4063 19.4388 47.8453 20.0525 46.3716C20.4335 45.4546 21.079 44.7669 21.8832 44.2429C22.751 43.6753 23.7139 43.3697 24.7298 43.2387C25.7986 43.0968 26.8462 43.1513 27.8832 43.4351C28.0949 43.5006 28.0949 43.4897 28.042 43.719C27.9044 44.232 27.7668 44.7451 27.6293 45.2581C27.5975 45.3782 27.3859 45.4437 27.3118 45.3455C26.9203 44.8433 26.4018 44.6578 25.8092 44.6359C25.0049 44.6032 24.243 44.7232 23.5446 45.1708C22.7086 45.7057 22.3065 46.6445 22.497 47.616C22.6346 48.3256 23.0578 48.8168 23.661 49.1443C24.3488 49.5045 25.079 49.5591 25.8197 49.4499C26.2748 49.3953 26.7086 49.2753 27.1742 49.1334Z" fill="#242220"/>
<path d="M28.1904 38.3919C28.5079 38.3701 28.8148 38.4028 29.1322 38.4137C29.1957 38.4137 29.2486 38.4137 29.3121 38.3919C29.3545 38.3701 29.4074 38.3591 29.4074 38.3046C29.4074 38.25 29.365 38.2172 29.3227 38.2063C29.1534 38.1299 28.9735 38.0862 28.783 38.0535C28.6455 38.0207 28.4973 38.0098 28.3597 37.9771C28.1693 37.9443 28.0952 37.857 28.0846 37.6605C28.0634 37.2566 28.0529 36.8636 28.0317 36.4597C28 35.9358 27.9682 35.4227 27.9153 34.8987C27.873 34.5058 27.8518 34.1128 27.8095 33.7198C27.7672 33.305 27.7142 32.9011 27.6719 32.4863C27.5978 31.8422 27.4814 31.1982 27.3862 30.5541C27.3227 30.1502 27.2592 29.7463 27.1957 29.3424C27.164 29.135 27.1851 29.0586 27.3121 29.0259C27.365 29.015 27.4074 29.0259 27.4497 29.0368C27.7566 29.1241 28.0529 29.2442 28.2116 29.5499C28.3068 29.7354 28.328 29.9428 28.3809 30.1393C28.656 31.2855 28.9312 32.4317 29.2063 33.5779C29.5661 35.0843 29.9153 36.5907 30.2963 38.0862C30.4232 38.5775 30.5396 39.0578 30.6666 39.549C30.6772 39.6036 30.6772 39.6582 30.6666 39.7127C30.3492 40.9572 30.0317 42.2125 29.7142 43.457C29.6613 43.6753 29.6084 43.708 29.3862 43.6753C29.3545 43.6753 29.3227 43.6753 29.2804 43.6753C29.3121 43.3369 29.2486 43.0203 29.037 42.7583C28.9523 42.6601 28.8677 42.5618 28.7513 42.4963C28.6666 42.4527 28.6349 42.3872 28.6243 42.2889C28.5502 41.5357 28.4656 40.7934 28.3809 40.0402C28.2963 39.4944 28.2433 38.9486 28.1904 38.3919Z" fill="#9B2D35"/>
<path d="M23.0579 38.3701C23.9151 38.3701 24.7722 38.3592 25.6294 38.3701C26.095 38.381 26.55 38.381 27.0156 38.3919C27.0474 38.4356 27.0156 38.4792 27.0368 38.5229C27.0368 38.5775 27.0368 38.6212 27.0474 38.6757C27.0685 38.7303 27.0474 38.7849 27.0685 38.8395C27.0685 38.8941 27.0685 38.9377 27.0791 38.9923C27.0897 39.036 27.0897 39.0796 27.0685 39.1233C27.0474 39.1779 27.0579 39.2215 27.1003 39.2543C27.1003 39.2652 27.1003 39.287 27.1003 39.298C27.1214 39.3635 27.1003 39.4289 27.1214 39.4835C27.1214 39.5272 27.1214 39.5818 27.132 39.6254C27.1532 39.68 27.132 39.7346 27.1532 39.7892C27.1532 39.8328 27.1532 39.8874 27.1638 39.9311C27.1849 39.9857 27.1638 40.0402 27.1849 40.0948C27.1849 40.1494 27.1849 40.1931 27.1955 40.2477C27.2061 40.2913 27.2061 40.335 27.1849 40.3786C27.1638 40.4332 27.1743 40.4769 27.2167 40.5206C27.2167 40.5315 27.2167 40.5533 27.2167 40.5642C27.2273 40.6079 27.2273 40.6515 27.2167 40.6952C27.1955 40.7389 27.2061 40.7825 27.2378 40.8153C27.2378 40.8371 27.2378 40.859 27.2378 40.8808C27.2484 40.9245 27.2484 40.9681 27.2378 41.0118C27.2167 41.0554 27.2273 41.0991 27.259 41.1319C27.259 41.1537 27.259 41.1755 27.259 41.1974C27.2696 41.241 27.2696 41.2847 27.2484 41.3283C27.2273 41.3829 27.2378 41.4266 27.2802 41.4593C27.2802 41.4703 27.2802 41.4921 27.2802 41.503C27.2907 41.5467 27.2908 41.5903 27.2696 41.634C27.2484 41.6886 27.259 41.7322 27.3013 41.765C27.3013 41.7759 27.3013 41.7977 27.3013 41.8087C27.3225 41.9178 27.3013 41.9942 27.1955 42.027C27.1003 42.0379 27.0156 42.0161 26.9204 41.9942C26.8781 41.9724 26.8251 41.9942 26.7828 41.9724C26.7405 41.9724 26.6982 41.9724 26.6664 41.9615C26.6029 41.9396 26.5394 41.9724 26.4759 41.9397C26.4336 41.9397 26.4019 41.9397 26.3595 41.9397C26.3172 41.896 26.2643 41.9069 26.2114 41.9178C26.1267 41.9287 26.0209 41.9942 25.9574 41.8632C25.9574 41.8196 25.9574 41.765 25.9468 41.7213C25.9257 41.6667 25.9468 41.6122 25.9257 41.5576C25.9257 41.5139 25.9257 41.4593 25.9151 41.4157C25.8939 41.3611 25.9151 41.3065 25.8939 41.2519C25.8939 41.2083 25.8939 41.1646 25.8833 41.1319C25.8622 41.0882 25.8728 41.0445 25.8833 41.0009C25.9045 40.9572 25.8939 40.9135 25.8622 40.8808C25.8622 40.859 25.8622 40.8371 25.8622 40.8153C25.8516 40.7716 25.8516 40.728 25.8728 40.6843C25.8939 40.6297 25.8833 40.5861 25.841 40.5533C25.841 40.5424 25.841 40.5206 25.841 40.5096C25.8198 40.4551 25.841 40.4005 25.8198 40.3459C25.8198 40.3022 25.8198 40.2586 25.8093 40.2258C25.7881 40.1712 25.8093 40.1167 25.7881 40.0621C25.7881 40.0184 25.7881 39.9638 25.7775 39.9202C25.7669 39.8874 25.7669 39.8438 25.7881 39.811C25.8198 39.7564 25.7987 39.7128 25.7564 39.6691C25.7564 39.6582 25.7564 39.6364 25.7564 39.6254C25.714 39.5599 25.8198 39.4726 25.7352 39.4071C25.7352 39.3853 25.7352 39.3634 25.7352 39.3416C25.714 39.287 25.7352 39.2325 25.714 39.1779C25.714 39.1342 25.714 39.1015 25.7034 39.0578C25.6823 39.0032 25.7034 38.9486 25.6823 38.8941C25.6823 38.8504 25.6823 38.8067 25.6717 38.774C25.6505 38.7194 25.6717 38.6648 25.6505 38.6102C25.6505 38.5993 25.6505 38.5884 25.6505 38.5884C25.6294 38.4028 25.6294 38.4028 25.4495 38.4028C25.1638 38.4028 24.8781 38.4028 24.6029 38.4028C24.5183 38.4028 24.4971 38.4247 24.4971 38.512C24.5606 39.5381 24.6347 40.5533 24.6982 41.5794C24.7087 41.7104 24.7087 41.8305 24.7299 41.9615C24.7405 42.027 24.7299 42.0488 24.6558 42.0597C24.1902 42.1143 23.714 42.2016 23.259 42.3435C23.1743 42.3654 23.1849 42.3217 23.1743 42.2671C23.1532 41.5903 23.1214 40.9026 23.1003 40.2258C23.0791 39.6473 23.0579 39.0687 23.0474 38.5011C23.0685 38.4356 23.0579 38.4028 23.0579 38.3701Z" fill="#9B2D35"/>
<path d="M28.2749 43.5443C28.2749 43.3369 28.4125 43.1841 28.6135 43.1841C28.8146 43.1841 28.9733 43.3369 28.9733 43.5443C28.9733 43.7408 28.8146 43.9045 28.6241 43.9045C28.423 43.8936 28.2749 43.7408 28.2749 43.5443Z" fill="#333130"/>
<path d="M21.7456 42.7146C21.7985 42.671 21.8726 42.7037 21.9361 42.6928C21.9784 42.7256 22.0736 42.6928 22.0736 42.7365C22.0842 42.802 21.989 42.802 21.9467 42.8347C21.9043 42.8566 21.862 42.8784 21.8197 42.9002C21.7879 42.8347 21.7668 42.7692 21.7456 42.7146Z" fill="#292624"/>
<path d="M25.9469 41.896C26.0209 41.9833 26.1162 41.9724 26.1902 41.9178C26.2749 41.8632 26.3172 41.8741 26.349 41.9724C26.2431 41.9724 26.1267 41.9724 26.0209 41.9724C25.968 41.9724 25.9363 41.9615 25.9469 41.896Z" fill="#9B2D35"/>
<path d="M27.1851 42.0597C27.2274 41.9833 27.3015 41.9396 27.2909 41.8414C27.3015 41.8741 27.312 41.9178 27.312 41.9505C27.3226 42.1034 27.3226 42.1034 27.1851 42.0597Z" fill="#9B2D35"/>
<path d="M27.2588 41.4812C27.1741 41.4593 27.1424 41.4047 27.2059 41.3283C27.2376 41.2847 27.2376 41.2519 27.2376 41.2083C27.2694 41.2956 27.2588 41.3938 27.2588 41.4812Z" fill="#9B2D35"/>
<path d="M27.0898 39.2543C27.0052 39.2325 26.9734 39.1779 27.0369 39.1015C27.0687 39.0687 27.0581 39.025 27.0687 38.9814C27.0898 39.0687 27.0898 39.167 27.0898 39.2543Z" fill="#9B2D35"/>
<path d="M25.841 40.5642C25.9257 40.586 25.9575 40.6406 25.894 40.717C25.8622 40.7498 25.8728 40.7934 25.8622 40.8371C25.8305 40.7498 25.841 40.6515 25.841 40.5642Z" fill="#9B2D35"/>
<path d="M27.1851 40.5424C27.1004 40.5205 27.0687 40.466 27.1322 40.3895C27.1639 40.3568 27.1533 40.3131 27.1639 40.2695C27.1956 40.3568 27.1851 40.4441 27.1851 40.5424Z" fill="#9B2D35"/>
<path d="M27.2905 41.7977C27.2059 41.7759 27.1741 41.7213 27.2376 41.6449C27.2694 41.6013 27.2694 41.5685 27.2694 41.5248C27.2905 41.6122 27.2905 41.7104 27.2905 41.7977Z" fill="#9B2D35"/>
<path d="M25.7668 39.6691C25.8515 39.6909 25.8938 39.7455 25.8197 39.8219C25.7986 39.8546 25.788 39.8765 25.788 39.9201C25.7562 39.8437 25.7668 39.7564 25.7668 39.6691Z" fill="#9B2D35"/>
<path d="M27.2377 41.1427C27.1742 41.1318 27.1425 41.0991 27.1848 41.0336C27.2165 40.9899 27.2165 40.9463 27.2165 40.9026C27.2483 40.979 27.2377 41.0554 27.2377 41.1427Z" fill="#9B2D35"/>
<path d="M27.2167 40.8262C27.1532 40.8153 27.1215 40.7826 27.1638 40.7171C27.1956 40.6734 27.1955 40.6297 27.1955 40.5861C27.2167 40.6625 27.2167 40.7498 27.2167 40.8262Z" fill="#9B2D35"/>
<path d="M25.8728 40.9026C25.9363 40.9135 25.968 40.9463 25.9257 41.0117C25.894 41.0554 25.894 41.0991 25.894 41.1427C25.8622 41.0663 25.8728 40.9899 25.8728 40.9026Z" fill="#9B2D35"/>
<path d="M25.7458 39.4071C25.8199 39.418 25.8411 39.4617 25.7987 39.5163C25.7776 39.549 25.767 39.5818 25.767 39.6254C25.7353 39.5599 25.7458 39.4835 25.7458 39.4071Z" fill="#9B2D35"/>
<path d="M27.1107 39.4944C27.0683 39.4398 27.1001 39.3634 27.0895 39.3088C27.1107 39.3634 27.1107 39.4289 27.1107 39.4944Z" fill="#9B2D35"/>
<path d="M26.4653 41.9833C26.5288 41.9833 26.5923 41.9615 26.6558 42.0051C26.5923 42.0051 26.5288 42.0051 26.4653 41.9833Z" fill="#9B2D35"/>
<path d="M25.7139 39.1779C25.7562 39.2324 25.7244 39.287 25.735 39.3416C25.7139 39.287 25.7139 39.2324 25.7139 39.1779Z" fill="#9B2D35"/>
<path d="M27.1321 39.8001C27.0898 39.7455 27.1216 39.6909 27.111 39.6364C27.1427 39.6909 27.1321 39.7455 27.1321 39.8001Z" fill="#9B2D35"/>
<path d="M27.1531 40.1166C27.1108 40.062 27.1426 40.0075 27.132 39.9529C27.1637 40.0075 27.1637 40.062 27.1531 40.1166Z" fill="#9B2D35"/>
<path d="M25.7988 40.0621C25.8411 40.1167 25.8094 40.1712 25.82 40.2258C25.7882 40.1821 25.7882 40.1276 25.7988 40.0621Z" fill="#9B2D35"/>
<path d="M25.8198 40.3568C25.8622 40.4114 25.8304 40.466 25.841 40.5206C25.8198 40.466 25.8198 40.4114 25.8198 40.3568Z" fill="#9B2D35"/>
<path d="M27.0579 38.8395C27.0156 38.7849 27.0473 38.7303 27.0368 38.6757C27.0579 38.7194 27.0579 38.774 27.0579 38.8395Z" fill="#9B2D35"/>
<path d="M25.894 41.2737C25.9364 41.3283 25.9046 41.3829 25.9152 41.4375C25.894 41.3829 25.894 41.3283 25.894 41.2737Z" fill="#9B2D35"/>
<path d="M25.6929 38.8831C25.7352 38.9377 25.7035 38.9923 25.714 39.0469C25.6929 39.0032 25.6929 38.9486 25.6929 38.8831Z" fill="#9B2D35"/>
<path d="M25.9258 41.5903C25.9681 41.6449 25.9363 41.6995 25.9469 41.7541C25.9152 41.6995 25.9152 41.6449 25.9258 41.5903Z" fill="#9B2D35"/>
<path d="M25.6719 38.5993C25.7142 38.6539 25.6824 38.7085 25.693 38.763C25.6613 38.7085 25.6613 38.6539 25.6719 38.5993Z" fill="#9B2D35"/>
<path d="M26.7725 42.0052C26.8148 42.0052 26.8677 41.9833 26.91 42.027C26.8571 42.027 26.8148 42.027 26.7725 42.0052Z" fill="#9B2D35"/>
<path d="M27.026 38.5229C26.9943 38.4792 27.0155 38.4356 27.0049 38.3919C27.0155 38.3919 27.0155 38.3919 27.026 38.3919C27.026 38.4356 27.026 38.4792 27.026 38.5229Z" fill="#9B2D35"/>
<path d="M25.8622 27.1811C25.7352 27.0719 25.6399 26.93 25.5553 26.7881C25.3436 26.4169 25.0791 26.0895 24.7934 25.7729C24.6981 25.6637 24.6981 25.5437 24.7405 25.4236C24.878 24.9433 25.005 24.463 25.0897 23.9717C25.1426 23.677 25.1849 23.3932 25.2272 23.0984C25.2696 22.8474 25.3966 22.6836 25.6399 22.5963C25.9786 22.4762 26.1267 22.247 26.1267 21.8868C26.1161 21.079 26.3807 20.3585 26.7511 19.6599C27.2802 18.6665 27.6929 17.6186 27.8939 16.5051C27.9891 15.9921 27.9997 15.479 27.8516 14.966C27.7881 14.7258 27.6823 14.5075 27.5235 14.3219C27.3013 14.0599 27.2802 13.787 27.4177 13.4705C27.714 12.8373 27.9045 12.1605 27.9997 11.4619C28.0421 11.1562 28.0315 10.8397 27.9786 10.534C27.968 10.4685 27.9362 10.3921 27.8833 10.3594C27.6611 10.2065 27.5764 9.96639 27.5553 9.71532C27.46 8.54729 27.2167 7.42294 26.7616 6.34224C26.423 5.51262 25.9786 4.74849 25.4177 4.06078C25.3966 4.03895 25.3754 4.01711 25.386 3.97345C25.7987 4.02803 26.2008 4.08261 26.6135 4.13719C27.0473 4.19177 27.4706 4.25727 27.9045 4.31185C28.3278 4.36643 28.7511 4.42101 29.1743 4.47559C29.6082 4.53017 30.0315 4.59567 30.4653 4.65025C31.0262 4.72666 31.5976 4.80307 32.1585 4.87949C32.6452 4.94498 33.132 5.01048 33.6188 5.06506C34.1796 5.14147 34.7511 5.21788 35.3119 5.2943C35.8093 5.35979 36.296 5.42529 36.7934 5.49079C37.2802 5.55628 37.7669 5.62178 38.2643 5.68728C38.5394 5.72002 38.8145 5.76369 39.0897 5.79644C39.2378 5.81827 39.3119 5.91651 39.2696 6.06934C39.0685 6.86621 38.8675 7.65217 38.6664 8.43813C38.4018 9.46425 38.1373 10.4904 37.8727 11.5165C37.4177 13.2958 36.9627 15.0751 36.5077 16.8544C36.0103 18.8084 35.513 20.7624 35.0156 22.7164C34.5817 24.3975 34.1585 26.0785 33.7246 27.7705C33.5447 28.4692 33.3648 29.1678 33.1849 29.8664C33.1532 29.9865 33.1003 29.9865 33.005 29.9647C32.5394 29.8555 32.0738 29.7464 31.6082 29.6263C30.804 29.4298 30.0103 29.2442 29.2061 29.0477C29.1108 29.0259 29.0156 28.9931 28.9627 28.9167C28.7722 28.6547 28.5077 28.5128 28.2325 28.36C27.5341 27.9779 26.804 27.6723 26.1055 27.3121C26.0526 27.2793 25.9997 27.2466 25.9468 27.2138C25.8939 27.2138 25.8727 27.2029 25.8622 27.1811Z" fill="#9B2D35"/>
<path d="M9.64006 27.2247C9.39667 27.7378 9.20619 28.2727 9.00514 28.8076C8.9099 29.0695 8.75117 29.2551 8.48662 29.3424C8.21149 29.4407 7.94694 29.5608 7.66122 29.6481C7.34376 29.7573 7.05805 29.9319 6.82524 30.183C6.6136 30.4122 6.35963 30.5432 6.06334 30.6087C5.01572 30.8707 3.97868 31.1764 2.95223 31.5366C2.19032 31.8095 1.439 32.0933 0.70884 32.4317C0.698258 32.4426 0.687676 32.4426 0.687676 32.4317C0.687676 28.7857 0.698258 25.1288 0.677094 21.4829C0.645348 15.9702 0.677094 10.4576 0.645348 4.94498C0.634766 3.62413 0.645348 2.3142 0.634766 0.993349C0.634766 0.764111 0.698258 0.698615 0.909898 0.720447C1.26969 0.764111 1.64006 0.818692 1.99985 0.862356C2.43371 0.916937 2.85699 0.971517 3.29085 1.03701C3.71413 1.09159 4.13741 1.14617 4.56069 1.20076C4.99455 1.25534 5.41783 1.32083 5.8517 1.37541C6.33847 1.44091 6.82524 1.50641 7.3226 1.5719C7.75646 1.62648 8.17974 1.68106 8.6136 1.74656C9.0263 1.80114 9.44958 1.85572 9.89403 1.92122C9.75646 1.98671 9.64006 2.00855 9.52365 2.03038C9.21678 2.10679 8.89932 2.17229 8.58186 2.2487C8.2644 2.32511 8.14799 2.55435 8.23265 2.9255C8.30672 3.23115 8.33847 3.52588 8.22207 3.82062C8.14799 4.01711 8.02101 4.19177 7.89403 4.35551C7.37551 4.98864 6.82524 5.57811 6.14799 6.03658C5.98926 6.14575 5.81995 6.22216 5.64006 6.30949C5.18503 6.53873 5.0263 6.92079 5.18503 7.42293C5.29085 7.76133 5.44958 8.06698 5.61889 8.37263C5.89402 8.87477 5.97868 9.40966 5.93635 9.98821C5.87286 10.7087 5.64006 11.3746 5.40725 12.0404C5.37551 12.1168 5.33318 12.2042 5.29085 12.2697C5.07921 12.5972 5.10037 12.9246 5.29085 13.2521C5.48133 13.5905 5.73529 13.8743 5.98926 14.1582C6.14799 14.3328 6.15858 14.4092 6.04217 14.6057C5.89402 14.8677 5.8517 15.1515 5.83053 15.4463C5.79879 15.8392 5.87286 16.2104 5.9681 16.5924C6.22207 17.6186 6.65593 18.5573 7.20619 19.4415C7.28027 19.5507 7.36492 19.6599 7.439 19.769C7.60831 20.0529 7.60831 20.3585 7.56598 20.6642C7.51307 21.068 7.49191 21.461 7.68238 21.8431C7.84111 22.1597 8.07392 22.4107 8.37022 22.5745C8.69826 22.76 8.83582 23.0439 8.9099 23.4041C9.07921 24.2228 9.36493 25.0088 9.77762 25.7401C9.8517 25.8602 9.90461 25.9912 9.97868 26.1222C10.0422 26.2314 10.0316 26.3187 9.97868 26.4279C9.8517 26.6789 9.7353 26.93 9.64006 27.192C9.65064 27.192 9.66122 27.2138 9.64006 27.2247Z" fill="#9B2D35"/>
<path d="M14.0316 6.22219C15.0263 6.0912 15.9893 6.18944 16.8993 6.65883C16.9416 6.68067 16.9734 6.69158 17.0157 6.71341C17.1639 6.78983 17.2908 6.77891 17.4178 6.65883C17.566 6.51692 17.7353 6.38593 17.9046 6.25494C17.9998 6.17852 18.021 6.0912 17.9787 5.98203C18.0633 5.88379 18.1797 5.82921 18.2855 5.7528C18.5184 5.58906 18.7617 5.44715 19.0157 5.32707C19.3861 5.15241 19.7564 5.11966 20.148 5.21791C20.9099 5.4144 21.6506 5.65455 22.3596 6.00387C22.8252 6.23311 23.2591 6.52784 23.6295 6.9099C24.0633 7.36838 24.4443 7.88144 24.6665 8.49274C24.6982 8.56915 24.7512 8.64556 24.6982 8.72197C24.6136 8.75472 24.6136 8.83114 24.6136 8.90755C24.6348 9.34419 24.6559 9.78084 24.6771 10.2175C24.6877 10.3157 24.6771 10.4031 24.6665 10.4904C24.6242 10.9161 24.7723 11.2873 24.9628 11.6366C25.1109 11.9095 25.2908 12.1605 25.3861 12.4662C25.5025 12.8483 25.5236 13.2303 25.5342 13.6233C25.5342 13.7215 25.4707 13.7652 25.3437 13.7434C25.058 13.6888 24.7723 13.6451 24.4866 13.5796C24.0951 13.4923 23.693 13.4705 23.2908 13.4596C22.3914 13.4268 21.5025 13.405 20.603 13.4377C20.0104 13.4596 19.4284 13.5251 18.8887 13.8089C18.6982 13.9071 18.5289 14.0381 18.3596 14.1691C18.2115 14.2892 18.0527 14.3219 17.8623 14.2783C17.4919 14.1909 17.1215 14.1909 16.7512 14.3219C16.5501 14.3874 16.3702 14.3438 16.2009 14.2128C15.9575 14.0272 15.7247 13.8198 15.4602 13.667C14.9945 13.3941 14.4866 13.2522 13.9575 13.1976C13.2168 13.1212 12.476 13.0666 11.7353 13.0666C11.693 13.0229 11.7141 12.9683 11.7247 12.9138C11.7988 12.4989 11.8517 12.0841 11.8834 11.6584C11.9046 11.3528 11.9998 11.058 12.0739 10.7633C12.1903 10.283 12.3279 9.79175 12.476 9.32236C12.7406 8.49274 13.058 7.68495 13.5554 6.96448C13.6083 6.88807 13.6612 6.81166 13.7247 6.73525C13.8728 6.59334 13.9998 6.44051 14.0316 6.22219Z" fill="#FDF1D6"/>
<path d="M22.7934 27.2356C22.2219 27.836 21.6082 28.3709 20.8992 28.7966C20.7299 28.9058 20.55 28.9931 20.3701 29.0914C20.1267 29.2115 19.8727 29.1678 19.6928 28.9713C19.6293 28.9058 19.5764 28.8512 19.5129 28.7857C19.46 28.7093 19.4812 28.622 19.4706 28.5456C19.4071 28.0325 19.2378 27.5522 19.0367 27.0937C18.9309 26.8427 18.8992 26.5916 18.9098 26.3296C18.9203 26.0676 18.9309 25.8056 18.9944 25.5546C19.005 25.5218 19.0262 25.4672 18.9944 25.4454C18.9521 25.4127 18.9203 25.4563 18.878 25.4781C18.8039 25.5327 18.7616 25.5982 18.7404 25.6856C18.7087 25.8493 18.6558 25.9912 18.55 26.1222C18.4865 26.1986 18.4018 26.2423 18.3066 26.2095C18.2113 26.1768 18.1584 26.1004 18.1479 25.9912C18.1373 25.9039 18.1479 25.8275 18.1373 25.7401C18.1267 25.5436 18.042 25.4563 17.8516 25.5C17.5553 25.5655 17.259 25.5109 16.9521 25.5109C16.9203 25.5109 16.8992 25.5 16.8674 25.4781C16.8251 25.2271 16.6875 25.0852 16.4442 25.0306C16.3277 25.0088 16.2113 24.9542 16.1161 24.8778C15.9997 24.7795 15.9997 24.7031 16.1161 24.6158C16.4865 24.3538 16.8886 24.2665 17.333 24.321C18.0738 24.4084 18.8145 24.452 19.5447 24.2446C19.841 24.1573 20.1373 24.07 20.4442 23.9717C20.5394 23.939 20.6135 23.9608 20.6981 24.0045C20.7299 24.0263 20.7616 24.0372 20.8039 24.0591C21.0897 24.1901 21.2272 24.4084 21.2061 24.7468C21.1849 25.0415 21.2061 25.3362 21.2801 25.631C21.333 25.8384 21.4389 25.8602 21.587 25.7183C21.7669 25.5436 21.8198 25.3035 21.8727 25.0633C21.9256 24.8014 21.9574 24.5394 22.0526 24.2883C22.0949 24.1573 22.169 24.0372 22.2643 23.939C22.6029 23.6224 22.751 23.2076 22.8145 22.7491C22.8251 22.629 22.8357 22.4981 22.8463 22.3671C22.8569 22.3343 22.8569 22.3016 22.8569 22.2688C22.8463 22.1706 22.8886 22.1051 22.9627 22.0287C23.2907 21.723 23.3648 21.2755 23.1637 20.8716C23.0897 20.7296 23.005 20.5987 22.8886 20.4786C22.3912 19.9874 21.9468 19.4634 21.4918 18.9285C21.1531 18.5355 20.7299 18.2735 20.1902 18.2408C19.968 18.2299 19.7669 18.2844 19.5976 18.4264C19.5447 18.47 19.5129 18.5246 19.5129 18.5901C19.5129 18.6774 19.5129 18.7648 19.5235 18.8521C19.5447 19.0267 19.6293 19.1796 19.6082 19.3651C19.5976 19.4634 19.5764 19.5616 19.4918 19.6162C19.0897 19.9219 18.6558 20.162 18.1479 20.2493C17.6717 20.3367 17.2378 20.1838 16.8251 19.9437C16.7934 19.9219 16.7722 19.8891 16.7616 19.8454C16.6664 19.4743 16.5182 19.1141 16.5394 18.7211C16.55 18.5246 16.5817 18.3281 16.6346 18.1425C16.6558 18.077 16.6664 18.0115 16.6981 17.957C16.8674 17.5531 16.8886 17.1273 16.9098 16.6907C16.9309 16.254 16.9944 15.8283 17.0473 15.3917C17.0579 15.2716 17.0473 15.1406 17.1214 15.0424C17.3119 14.9987 17.5024 14.9769 17.6928 15.0642C17.8621 15.1406 17.968 15.2716 18.0103 15.4572C18.0738 15.7519 18.1584 16.0357 18.3383 16.2759C18.5817 16.5924 18.624 16.5924 18.9415 16.3523C19.132 16.2104 19.1426 16.1231 19.0262 15.9047C19.0156 15.8829 18.9944 15.8502 18.9838 15.8283C18.9521 15.7519 18.8992 15.6646 18.9733 15.5991C19.0367 15.5445 19.1214 15.5773 19.1955 15.6209C19.3648 15.7192 19.5447 15.8174 19.7246 15.8938C20.2431 16.0903 20.7828 16.1231 21.333 16.0139C21.5447 15.9702 21.7457 15.9375 21.9574 15.8938C22.1796 15.8611 22.3278 15.9375 22.4336 16.1449C22.4759 16.2322 22.5182 16.3086 22.5817 16.385C22.3595 16.5051 22.3595 16.5051 22.4547 16.7671C22.5394 17.0073 22.4865 17.2365 22.3701 17.4548C22.2748 17.6076 22.169 17.7605 22.042 17.8805C21.9891 17.9351 21.9362 17.9897 21.9468 18.0661C21.9574 18.2517 22.0844 18.3827 22.2643 18.3936C22.4336 18.3936 22.5923 18.339 22.7616 18.3281C23.3965 18.0334 23.7669 17.5203 23.9785 16.8654C24.1373 16.3632 24.2431 15.8392 24.3595 15.3153C24.3912 15.1515 24.4865 15.0314 24.624 14.955C24.8357 14.835 25.0579 14.7258 25.2907 14.6385C25.4494 14.573 25.5235 14.6166 25.587 14.7913C25.6399 14.9332 25.6399 15.086 25.6505 15.2389C25.6717 15.6646 25.6928 16.1012 25.7034 16.5379C25.7034 16.5815 25.7034 16.6361 25.7246 16.6798C25.7457 16.7453 25.7986 16.7562 25.8516 16.7453C26.1584 16.6689 26.3912 16.1995 26.2537 15.9047C26.2219 15.8392 26.1796 15.7737 26.1373 15.6973C25.9997 15.4463 26.0738 15.1952 26.3383 15.0533C26.5817 14.9223 26.8145 14.9987 26.9415 15.2498C27.0579 15.4899 27.0685 15.7519 27.0579 16.0139C27.0367 16.8217 26.8039 17.564 26.5076 18.2954C26.3278 18.7429 26.0844 19.1577 25.8939 19.5944C25.7352 19.9437 25.6082 20.3039 25.5024 20.6751C25.4812 20.7406 25.46 20.7951 25.4283 20.8497C25.3965 20.9152 25.333 20.948 25.2695 20.9371C25.2061 20.9261 25.1531 20.8825 25.132 20.817C25.1214 20.7842 25.1108 20.7406 25.1002 20.7078C25.0897 20.6642 25.0897 20.5987 25.0367 20.5987C24.9944 20.5987 24.9627 20.6532 24.9415 20.6969C24.8357 20.9698 24.677 21.21 24.4971 21.4392C24.423 21.5374 24.4124 21.6684 24.4124 21.7885C24.4124 22.3125 24.3912 22.8255 24.3277 23.3386C24.1902 24.5721 23.8621 25.7511 23.1531 26.7772C23.0579 26.9082 22.9521 27.0392 22.8569 27.1701C22.8357 27.2029 22.8145 27.2138 22.7934 27.2356Z" fill="#FDF1D6"/>
<path d="M24.6982 8.73289C24.6347 8.40541 24.476 8.12159 24.3067 7.84869C24.1162 7.53212 23.8834 7.23739 23.6294 6.9754C23.3331 6.66975 23.0051 6.40777 22.6347 6.20036C21.8517 5.76372 21.0051 5.49081 20.148 5.26158C19.5871 5.10875 19.1109 5.29432 18.6453 5.56723C18.4125 5.69822 18.222 5.87288 17.9786 5.99296C17.7247 5.70914 17.4284 5.4799 17.1109 5.27249C16.3702 4.75944 15.5659 4.39921 14.6771 4.2573C13.894 4.1263 13.1109 4.13722 12.3279 4.23546C11.8622 4.29004 11.4072 4.38829 10.9416 4.49745C10.8887 4.50837 10.8358 4.51928 10.7829 4.51928C10.7194 4.51928 10.6559 4.48653 10.6242 4.43195C10.5818 4.36646 10.6347 4.32279 10.6665 4.27913C10.7935 4.1263 10.9416 4.00623 11.1003 3.89706C11.8093 3.38401 12.5501 2.94736 13.3966 2.70721C13.4178 2.69629 13.4495 2.69629 13.4707 2.68538C13.5554 2.64171 13.5871 2.57622 13.5871 2.48889C13.5765 2.39064 13.5025 2.3579 13.4284 2.34698C13.2591 2.31423 13.0898 2.31423 12.9204 2.31423C12.8358 2.31423 12.73 2.34698 12.6982 2.24873C12.6665 2.13957 12.7723 2.08499 12.8358 2.04133C13.1321 1.82301 13.4707 1.70293 13.8199 1.60468C14.9522 1.2772 16.0951 1.04796 17.2697 1.0698C18.6559 1.09163 19.9892 1.41911 21.2591 1.99766C22.1268 2.39064 22.9522 2.87095 23.6612 3.515C25.0686 4.8031 26.021 6.38593 26.4125 8.29625C26.6453 9.43152 26.6982 10.5777 26.6136 11.7348C26.603 11.9095 26.5712 12.0732 26.5289 12.237C26.5183 12.2697 26.5077 12.3134 26.4866 12.3461C26.4548 12.4116 26.4125 12.4989 26.3279 12.488C26.2432 12.488 26.222 12.4007 26.2009 12.3243C26.0316 11.8003 25.8411 11.2763 25.64 10.7742C25.3966 10.152 25.1321 9.52977 24.8358 8.92938C24.804 8.83114 24.7723 8.76564 24.6982 8.73289Z" fill="#FEFEFE"/>
<path d="M24.1374 27.2029C24.1691 27.1374 24.2115 27.0719 24.2432 27.0064C24.2961 26.9082 24.349 26.9082 24.4231 26.9846C24.4866 27.0501 24.5289 27.1265 24.5818 27.2029C24.5924 27.2138 24.5924 27.2247 24.603 27.2247C24.7723 27.585 24.8146 27.967 24.8358 28.3709C24.9099 29.7464 24.6347 31.0563 24.2644 32.3553C23.9892 33.3268 23.6612 34.2875 23.2273 35.1935C23.185 35.2808 23.1215 35.39 23.2168 35.4446C23.312 35.4991 23.3755 35.39 23.4284 35.3245C23.6718 35.0188 23.8517 34.6804 24.021 34.342C24.8252 32.7265 25.4284 31.0454 25.7988 29.2661C25.8834 29.2224 25.8728 29.2988 25.8834 29.3425C25.9046 29.4735 25.9152 29.6154 25.9363 29.7464C26.0951 30.9908 26.0845 32.2461 26.0633 33.4906C26.0527 34.1237 26.0316 34.7568 26.0104 35.39C25.9998 35.8485 25.9575 36.3069 25.9257 36.7545C25.9046 37.0274 25.8834 37.3003 25.8623 37.5732C25.8517 37.7588 25.8305 37.7806 25.6506 37.7588C24.1691 37.7042 22.6877 37.6605 21.1956 37.6278C20.6453 37.6169 20.1056 37.6169 19.5554 37.6059C19.3332 37.6059 19.312 37.5732 19.3014 37.344C19.2697 36.3506 19.0898 35.39 18.7511 34.4621C18.7406 34.4403 18.7406 34.4184 18.73 34.3966C18.7829 34.3748 18.8146 34.4294 18.8464 34.4512C19.0898 34.6914 19.3226 34.9424 19.5448 35.2044C19.8834 35.5974 20.2855 35.9249 20.7088 36.2196C21.0369 36.4488 21.3543 36.4707 21.6824 36.2414C21.7035 36.2305 21.7247 36.2196 21.7459 36.2087C21.7988 36.165 21.7988 36.1214 21.7776 36.0559C21.7247 35.8921 21.64 35.7502 21.5448 35.6083C21.185 35.0734 20.7829 34.5822 20.3914 34.08C20.3596 34.0473 20.3279 34.0036 20.3067 33.9709C20.2855 33.9272 20.222 33.8836 20.2644 33.829C20.2961 33.7853 20.3596 33.7853 20.4019 33.7962C20.6771 33.829 20.9522 33.8726 21.2168 33.8945C21.312 33.9054 21.4072 33.9163 21.4919 33.9054C21.7988 33.8945 21.9998 33.7089 22.021 33.3814C22.0422 32.912 22.0421 32.4426 22.0421 31.9732C22.0421 31.8968 22.0527 31.8204 22.0421 31.7331C22.0421 31.4711 21.9257 31.3183 21.6718 31.2528C21.3543 31.1764 21.0369 31.1655 20.7088 31.1873C20.476 31.1982 20.2326 31.2309 19.9998 31.2746C19.9363 31.2855 19.8411 31.3292 19.8199 31.2528C19.7882 31.1654 19.894 31.1327 19.9469 31.1C20.1691 30.969 20.4019 30.838 20.6242 30.6961C21.8093 29.9756 22.8358 29.0586 23.6506 27.9125C23.8093 27.6941 23.9575 27.4649 24.0739 27.2138C24.1268 27.2357 24.1162 27.2138 24.1374 27.2029Z" fill="#FEFEFE"/>
<path d="M14.0317 37.595C12.9101 37.6387 11.7884 37.6823 10.6773 37.7369C10.2963 37.7588 9.91535 37.7806 9.53439 37.8024C9.39683 37.8133 9.25926 37.8133 9.13228 37.8133C8.85715 37.8024 8.71958 37.6823 8.67725 37.4094C8.59259 36.9182 8.57143 36.4161 8.59259 35.9139C8.62434 35.0079 8.67725 34.1128 8.79365 33.2177C8.83598 32.8465 8.88889 32.4754 8.97355 32.1042C8.99471 32.0387 9.02646 32.0387 9.04762 32.0933C9.08995 32.1806 9.1217 32.2789 9.15344 32.3771C9.25926 32.7264 9.37566 33.0757 9.50265 33.4141C9.73545 34.0364 10.0529 34.6258 10.4233 35.1716C10.582 35.4118 10.7619 35.6301 10.9101 35.8812C11.0053 36.0449 11.1429 36.1759 11.2698 36.3178C11.4815 36.5689 11.6825 36.8309 11.9471 37.0274C12.2328 37.2457 12.7196 37.1911 12.9524 36.9073C13.0053 36.8418 13.0159 36.7654 13.037 36.689C13.0476 36.5471 12.9841 36.427 12.9101 36.3178C12.381 35.5319 11.9048 34.7132 11.5556 33.829C11.1746 32.8356 10.9418 31.8095 10.7831 30.7615C10.6984 30.2266 10.7302 29.6808 10.8042 29.146C10.8677 29.135 10.8995 29.1896 10.9312 29.2224C11.3545 29.6699 11.7989 30.0847 12.2222 30.5323C12.5185 30.8379 12.8783 31.0672 13.2064 31.3292C13.2487 31.3619 13.3122 31.3728 13.291 31.4492C13.1958 31.482 13.1111 31.5366 13.037 31.613C12.963 31.6567 12.8889 31.6676 12.8042 31.6785C12.4974 31.7549 12.2963 31.9623 12.2857 32.2898C12.2646 32.8683 12.3069 33.436 12.455 34.0036C12.4656 34.0364 12.4762 34.0582 12.4868 34.0909C12.6138 34.4621 12.8889 34.604 13.2593 34.6149C13.6191 34.6149 13.9788 34.5822 14.3386 34.5494C14.4656 34.5385 14.582 34.5385 14.709 34.5167C14.7513 34.5058 14.7937 34.5167 14.8254 34.5494C14.5608 34.9206 14.3069 35.3026 14.1482 35.7393C14.127 35.8048 14.0952 35.8812 14.0741 35.9467C14.0529 36.0013 14.0423 36.0558 14.0952 36.0886C14.1482 36.1213 14.1799 36.0777 14.2116 36.0449C14.254 36.0013 14.2963 35.9467 14.3386 35.8921C14.7196 35.379 15.1429 34.8987 15.6296 34.4948C15.7143 34.4293 15.8095 34.4184 15.9048 34.4184C15.9894 34.4184 16.0212 34.473 15.9683 34.5385C15.5661 35.0406 15.3439 35.641 15.0159 36.1868C14.7937 36.558 14.5608 36.9291 14.3175 37.2894C14.2646 37.3658 14.2222 37.4313 14.1799 37.5077C14.1376 37.5513 14.0952 37.5841 14.0317 37.595Z" fill="#FEFEFE"/>
<path d="M16.8677 25.4781C17.037 25.4781 17.1958 25.4672 17.3651 25.5C17.5238 25.5218 17.6931 25.4891 17.8518 25.4563C18.0423 25.4236 18.1587 25.5109 18.1693 25.7074C18.1693 25.7947 18.1693 25.882 18.1693 25.9694C18.1693 26.0676 18.2116 26.144 18.2963 26.1768C18.3809 26.2095 18.4656 26.1768 18.5185 26.0895C18.6137 25.9585 18.6772 25.8165 18.6984 25.6528C18.709 25.5546 18.8571 25.3908 18.9524 25.369C19.0264 25.3581 19.0688 25.3799 19.037 25.4672C18.9418 25.7401 18.9524 26.024 18.9312 26.3078C18.8995 26.6789 19.037 27.0173 19.1746 27.3557C19.3651 27.8033 19.5026 28.2727 19.5026 28.7748C19.3968 28.7857 19.3439 28.8512 19.3545 28.9822C19.3651 29.0695 19.3862 29.1678 19.3968 29.2551C19.4709 29.6372 19.3122 29.9319 19.1217 30.2267C18.9524 30.4886 18.7407 30.7179 18.582 30.9799C18.4233 31.2418 18.2963 31.5257 18.2857 31.8422C18.2857 31.9296 18.2328 31.9623 18.1587 31.9623C18.0423 31.9623 17.9471 31.9186 17.873 31.8422C17.1958 31.2091 16.4973 30.6196 16.0212 29.79C15.7143 29.2551 15.6296 28.6875 15.7884 28.098C15.8624 27.8033 15.9471 27.5085 16.0212 27.2138C16.0106 27.2029 16.0106 27.2029 16.0106 27.192L16.0212 27.1811C16.1481 26.7226 16.1376 26.275 16.0423 25.8165C16.0317 25.7511 15.9682 25.6637 16.0635 25.6201C16.1376 25.5764 16.2116 25.6419 16.2645 25.6965C16.4021 25.8384 16.4762 26.013 16.582 26.1768C16.6243 26.2423 16.6561 26.3405 16.7407 26.3296C16.8148 26.3078 16.8148 26.2095 16.836 26.1331C16.91 25.9257 16.8783 25.6965 16.8677 25.4781Z" fill="#FEFEFE"/>
<path d="M1.07935 39.9201C1.04761 39.9201 1.01586 39.9201 0.994699 39.9092C0.761894 39.8874 0.719566 39.8328 0.719566 39.5927C0.719566 37.5404 0.708984 35.4991 0.708984 33.4469C0.719566 33.4142 0.751312 33.4251 0.772476 33.4142C1.25925 33.2395 1.73544 33.0758 2.22221 32.9011C2.48676 32.8029 2.76189 32.7155 3.01586 32.6064C3.44972 32.4317 3.87301 32.4426 4.29629 32.65C4.32803 32.6937 4.29629 32.7264 4.27512 32.7592C3.9365 33.305 3.72486 33.9054 3.50264 34.5058C3.31216 34.997 3.14285 35.51 2.98412 36.0122C2.95237 36.1213 2.91004 36.2196 2.85713 36.3288C2.51851 37.0274 2.17988 37.7151 1.85184 38.4137C1.6402 38.8722 1.41798 39.3198 1.20634 39.7782C1.15343 39.8219 1.14285 39.8874 1.07935 39.9201Z" fill="#FEFEFE"/>
<path d="M31.2381 37.3003C30.9841 36.4052 30.7301 35.5428 30.4762 34.6804C30.0846 33.3377 29.6825 31.995 29.291 30.6524C29.2592 30.5432 29.2381 30.434 29.2169 30.3249C29.1957 30.183 29.2487 30.1066 29.3862 30.0957C29.5661 30.0847 29.7354 30.1393 29.9047 30.183C30.8677 30.3904 31.8307 30.5978 32.7936 30.7943C32.8994 30.8161 32.8994 30.8489 32.8783 30.9362C32.3598 32.9666 31.8412 34.997 31.3121 37.0274C31.291 37.1038 31.2698 37.1911 31.2381 37.3003Z" fill="#FEFEFE"/>
<path d="M7.55531 12.3788C7.57647 11.5492 7.65055 10.7196 7.76695 9.88996C7.83044 9.46423 7.78811 9.04942 7.57647 8.65644C7.46007 8.44903 7.35425 8.23071 7.25901 8.0233C7.17436 7.83773 7.29076 7.65216 7.48123 7.66307C8.15848 7.6849 8.75108 7.42292 9.3225 7.08452C9.89393 6.74612 10.423 6.32039 11.005 6.02566C11.5447 5.75276 12.1056 5.54535 12.7087 5.54535C12.7722 5.54535 12.8463 5.54535 12.9098 5.56718C12.9945 5.59993 13.005 5.66543 12.931 5.72001C12.8886 5.75276 12.8463 5.77459 12.804 5.79642C11.7881 6.23306 11.058 6.98627 10.5289 7.95781C10.3172 8.33987 10.0844 8.68918 9.72462 8.95117C9.3225 9.23499 9.17436 9.67163 9.03679 10.1192C8.69817 11.189 8.53944 12.2915 8.52885 13.4159C8.52885 13.4923 8.52885 13.5687 8.50769 13.6451C8.49711 13.6778 8.48653 13.7106 8.46536 13.7433C8.40187 13.8416 7.94684 14.0053 7.84102 13.9726C7.75637 13.9398 7.7352 13.8743 7.71404 13.7979C7.65055 13.5796 7.60822 13.3504 7.58705 13.1211C7.56589 12.881 7.54473 12.6299 7.55531 12.3788Z" fill="#FEFEFE"/>
<path d="M21.2482 22.3998C20.571 22.3453 19.8937 22.2689 19.2165 22.2143C17.7668 22.116 16.3276 22.0942 14.899 22.3889C14.6662 22.4326 14.4334 22.4544 14.19 22.4108C14.0525 22.378 13.9361 22.3125 13.8514 22.2034C13.7562 22.0833 13.7773 22.0178 13.9149 21.9523C14.0207 21.8977 14.1371 21.854 14.2429 21.8104C14.4652 21.7012 14.6556 21.5593 14.8144 21.3737C14.8884 21.2864 14.9625 21.21 15.0366 21.1227C15.3329 20.7952 15.7985 20.7188 16.1795 20.9371C16.6345 21.21 17.1318 21.3192 17.6609 21.341C17.9572 21.3519 18.2006 21.2427 18.3699 20.9917C18.4969 20.8061 18.6662 20.6969 18.8673 20.6533C19.1847 20.5769 19.4387 20.3804 19.6927 20.1839C19.862 20.0529 19.9784 20.0529 20.1477 20.1839C20.3276 20.3258 20.4757 20.5114 20.6027 20.7079C20.7403 20.9153 20.8673 21.1227 21.0048 21.3301C21.1847 21.5921 21.4387 21.7667 21.735 21.854C21.7668 21.865 21.7879 21.865 21.8197 21.8868C21.9572 21.9632 21.9784 22.0942 21.862 22.2143C21.6927 22.3889 21.4705 22.4108 21.2482 22.3998Z" fill="#FEFEFE"/>
<path d="M11.5975 18.0879C11.4282 17.957 11.2271 17.8587 11.0684 17.7168C10.7403 17.4221 10.5181 17.0727 10.37 16.6579C10.3276 16.5269 10.3594 16.4287 10.4758 16.3632H10.4864C10.7403 16.1776 10.9731 16.1558 11.1953 16.4287C11.2588 16.5051 11.3435 16.5597 11.4387 16.5815C11.5869 16.6252 11.7033 16.6143 11.7985 16.4833C11.9678 16.265 12.1583 16.0794 12.4017 15.9484C12.7297 15.7737 13.0789 15.7846 13.4282 15.8392C13.7668 15.8938 14.1054 15.9921 14.4546 15.9375C14.5816 15.9156 14.698 15.8938 14.825 15.8501C14.8779 15.8283 14.9202 15.8065 14.9731 15.7846C15.026 15.7737 15.0789 15.7519 15.1213 15.8174C15.153 15.872 15.1213 15.9156 15.0895 15.9593C15.0049 16.0576 14.9202 16.1558 14.8461 16.254C14.6874 16.3741 14.4969 16.4287 14.3065 16.4833C14.116 16.5379 14.0525 16.6143 14.0948 16.8108C14.1371 17.04 14.0948 17.2365 13.9784 17.433C13.7985 17.7386 13.5446 17.946 13.2165 18.0661C13.153 18.0879 13.0895 18.0989 13.0789 18.1753C13.0155 18.3281 13.1001 18.4809 13.28 18.5028C13.4176 18.5246 13.5551 18.4918 13.6927 18.47C13.9255 18.4373 14.1689 18.3936 14.3911 18.3063C14.4229 18.2954 14.4652 18.2735 14.4969 18.3063C14.2006 18.5792 13.989 18.9067 13.9043 19.3105C13.8832 19.4197 13.8197 19.4852 13.7244 19.518C13.4811 19.6053 13.2588 19.7254 13.0366 19.8345C12.8885 19.8782 12.7932 19.8454 12.7086 19.7144C12.5181 19.3979 12.3276 19.0813 12.1901 18.7429C12.1477 18.6447 12.116 18.5464 12.1054 18.4373C12.0948 18.339 12.0525 18.2844 11.9573 18.2517C11.8409 18.2299 11.7033 18.1862 11.5975 18.0879Z" fill="#FDF1D6"/>
<path d="M1.0791 39.9202C1.54471 38.9486 1.99974 37.9771 2.47593 37.0165C2.79339 36.3833 3.03677 35.7175 3.26958 35.0516C3.4918 34.3966 3.7246 33.7526 4.03148 33.1303C4.10556 32.9666 4.20079 32.8247 4.28545 32.6609C4.49709 32.7264 4.70873 32.8138 4.92037 32.912C5.05794 32.9775 5.13201 33.1958 5.08968 33.4032C5.04736 33.6325 4.93095 33.8399 4.8463 34.0582C4.07381 35.9139 3.30132 37.7697 2.63466 39.68C2.59233 39.8001 2.53942 39.9092 2.48651 40.0293C2.46535 40.0839 2.44418 40.1166 2.38069 40.1057C1.94683 40.0402 1.51296 39.9966 1.0791 39.9202Z" fill="#DFC091"/>
<path d="M14.0317 6.22217C14.074 6.45141 13.9047 6.59332 13.7883 6.73522C13.4497 7.15004 13.1852 7.60851 12.9735 8.09974C12.5291 9.13677 12.2539 10.2175 11.9894 11.3091C11.9365 11.5165 11.9259 11.7348 11.9153 11.9531C11.8836 12.3352 11.8307 12.7063 11.7566 13.0775C11.3016 13.0993 10.8465 13.1321 10.3915 13.1539C10.2539 13.1648 10.1375 13.0884 10.1375 12.9574C10.127 12.7282 10.1058 12.4989 10.1693 12.2697C10.201 12.1387 10.2645 12.0186 10.3915 11.964C10.7725 11.7894 10.8465 11.451 10.8994 11.0689C11.0793 9.82448 11.4285 8.64554 12.1481 7.5976C12.4127 7.20462 12.6984 6.83347 13.0899 6.56057C13.3651 6.36408 13.6825 6.244 14.0317 6.22217Z" fill="#DFC091"/>
<path d="M14.1055 27.1811C13.4494 26.9955 12.9414 26.5807 12.5182 26.0568C11.8409 25.2053 11.4388 24.2119 11.2272 23.1531C11.1319 22.6728 11.2695 22.2034 11.6187 21.8431C11.788 21.6685 12.0102 21.6248 12.2324 21.6248C12.4018 21.6248 12.497 21.7667 12.5076 21.9741C12.5605 22.9784 12.7192 23.9609 13.0367 24.9215C13.1213 25.1616 13.2166 25.3909 13.3753 25.5874C13.5129 25.7729 13.6293 25.7511 13.7139 25.5437C13.7774 25.4018 13.8303 25.2599 13.8938 25.1289C13.9256 25.0416 13.9785 24.9761 14.0843 24.9761C14.1901 24.9761 14.2007 25.0743 14.2219 25.1507C14.3383 25.6201 14.4441 26.0895 14.5922 26.5589C14.624 26.6571 14.6663 26.7663 14.6981 26.8645C14.7404 26.9846 14.7192 27.0938 14.624 27.1811C14.6028 27.2248 14.5499 27.2029 14.5182 27.2248C14.4335 27.2248 14.3594 27.2248 14.2748 27.2248C14.2219 27.2029 14.1478 27.2357 14.1055 27.1811Z" fill="#DFC091"/>
<path d="M25.6401 37.7697C25.8094 37.7478 25.8094 37.7478 25.82 37.5732C25.8624 37.0165 25.9047 36.4488 25.9364 35.8921C25.947 35.7284 25.9576 35.5646 25.9682 35.4009C25.9788 34.8442 25.9788 34.2874 25.9999 33.7307C26.0317 32.9884 26.0211 32.2461 26.0211 31.5038C26.0105 30.9799 25.9576 30.4559 25.9047 29.9319C25.8835 29.7354 25.8624 29.5389 25.8518 29.3424C25.8518 29.3206 25.8729 29.266 25.8094 29.2769C25.8412 29.1023 25.8729 28.9276 25.9047 28.753C25.9364 28.5783 26.0211 28.5456 26.1692 28.6438C26.4126 28.7966 26.4867 29.0477 26.5396 29.3097C26.6031 29.6372 26.6137 29.9756 26.6454 30.3031C26.6772 30.707 26.7089 31.1218 26.7407 31.5257C26.7618 31.8641 26.783 32.2025 26.7936 32.5409C26.8571 33.818 26.8888 35.0952 26.91 36.3724C26.9206 36.7217 26.9206 37.071 26.9206 37.4204C26.91 37.6714 26.8571 37.7806 26.5714 37.7915C26.2539 37.8133 25.947 37.7806 25.6401 37.7697Z" fill="#DFC091"/>
<path d="M13.0049 36.689C13.0472 36.8637 12.9308 36.9619 12.8144 37.0492C12.5075 37.2675 12.0737 37.2239 11.7985 36.9728C11.534 36.7217 11.2906 36.4488 11.0684 36.1541C10.497 35.4118 9.96786 34.6368 9.58691 33.7744C9.38585 33.3268 9.24828 32.8465 9.08955 32.3771C9.05781 32.2898 9.02606 32.2025 8.99432 32.1042C8.97315 32.0387 8.96257 32.0824 8.94141 32.0933C8.97315 31.8641 9.03664 31.6458 9.10014 31.4274C9.15305 31.2419 9.47051 31.0454 9.6504 31.0781C9.74564 31.089 9.77738 31.1655 9.80913 31.2419C10.0948 32.0606 10.4017 32.8793 10.7298 33.6871C11.0366 34.4294 11.4705 35.0843 11.9255 35.7393C12.1478 36.0668 12.3911 36.3833 12.6874 36.6453C12.7192 36.6781 12.7509 36.6999 12.7827 36.7327C12.9097 36.82 12.9414 36.8091 13.0049 36.689Z" fill="#DFC091"/>
<path d="M13.2695 31.4383C13.1425 31.2855 12.9732 31.1873 12.8145 31.0781C12.4441 30.8052 12.116 30.4886 11.7986 30.1611C11.4705 29.8118 11.1213 29.4843 10.7827 29.1459C10.8039 28.8512 10.8674 28.5674 11.0473 28.3163C11.1319 28.1962 11.2166 28.1962 11.3012 28.3054C12.1584 29.3752 13.2166 30.1939 14.3594 30.8925C14.4441 30.9362 14.5182 30.9908 14.5922 31.0453C14.6451 31.089 14.6981 31.1545 14.6769 31.22C14.6557 31.2964 14.5817 31.2855 14.5182 31.2964C14.2642 31.3183 14.0102 31.2964 13.7563 31.3292C13.5975 31.3619 13.4388 31.4056 13.2695 31.4383Z" fill="#DFC091"/>
<path d="M19.5129 18.8739C19.4812 18.8084 19.4706 18.732 19.4706 18.6665C19.46 18.4809 19.6611 18.2845 19.8939 18.2517C20.423 18.1644 20.8674 18.3718 21.2696 18.6993C21.5976 18.9722 21.8304 19.3433 22.1161 19.6599C22.3912 19.9655 22.6875 20.2384 22.9521 20.5441C23.2061 20.8388 23.3436 21.1663 23.2484 21.5702C23.2061 21.7667 23.1108 21.9304 22.9627 22.0505C22.878 22.1269 22.8251 22.2033 22.8463 22.3125C22.8463 22.3343 22.8357 22.3562 22.8251 22.3671C22.8039 22.1051 22.8357 21.8322 22.7934 21.5702C22.7616 21.3191 22.6558 21.1226 22.4336 21.0244C21.9256 20.7952 21.5764 20.4022 21.2801 19.9437C21.0368 19.5835 20.8039 19.2232 20.4547 18.9722C20.2431 18.8193 20.0209 18.6993 19.7563 18.6447C19.5659 18.6229 19.5235 18.6665 19.5129 18.8739Z" fill="#DFC091"/>
<path d="M14.7934 34.5385C14.4019 34.5713 13.9998 34.604 13.6083 34.6368C13.386 34.6586 13.1638 34.6586 12.9522 34.615C12.6453 34.5495 12.4971 34.3093 12.4125 34.0364C12.3173 33.7308 12.2855 33.4142 12.2643 33.0976C12.2538 32.8684 12.222 32.6391 12.2326 32.4099C12.2432 31.9078 12.5395 31.613 13.0262 31.613C12.9839 31.7331 12.9733 31.8532 12.9733 31.9842C12.9733 32.4427 12.9839 32.9011 12.9522 33.3596C12.9204 33.8181 13.2167 33.9709 13.5448 34.0255C13.9786 34.091 14.4125 34.0037 14.8464 33.9927C14.8675 33.9927 14.8887 33.9818 14.9098 33.9818C14.9945 33.9818 15.0897 33.9709 15.1321 34.0473C15.1744 34.1237 15.1003 34.1783 15.058 34.2438C14.9628 34.3311 14.8993 34.4512 14.7934 34.5385Z" fill="#DFC091"/>
<path d="M11.5975 18.088C11.7563 18.1534 11.9044 18.2299 12.0737 18.2735C12.1372 18.2954 12.1478 18.3499 12.1478 18.3936C12.169 18.7102 12.3383 18.9612 12.4758 19.2341C12.5499 19.3761 12.6557 19.507 12.7192 19.6599C12.7933 19.8127 12.8991 19.8454 13.0473 19.8454C12.8674 19.9764 12.6875 20.1183 12.497 20.2384C12.2007 20.4349 11.8303 20.424 11.587 20.1729C11.1002 19.6817 10.7086 19.125 10.5393 18.4264C10.5182 18.3609 10.5076 18.2954 10.5711 18.2517C10.6346 18.208 10.6875 18.2517 10.7404 18.2844C10.8674 18.3827 10.9944 18.47 11.1425 18.5355C11.2589 18.5901 11.3753 18.6338 11.4811 18.5355C11.5975 18.4373 11.6504 18.2189 11.5975 18.088Z" fill="#DFC091"/>
<path d="M14.0317 37.5951C14.0529 37.5732 14.0846 37.5623 14.0952 37.5405C14.5926 36.7545 15.1005 35.9576 15.5238 35.128C15.6402 34.9097 15.746 34.6805 15.9259 34.5058C15.9365 34.4949 15.9365 34.4731 15.9577 34.4512C15.8307 34.4294 15.7143 34.4731 15.6085 34.4949C15.8942 34.2438 16.1905 34.0037 16.5397 33.8618C16.6032 33.8399 16.6772 33.7853 16.7407 33.8508C16.8042 33.9163 16.7831 34.0037 16.7619 34.0692C16.709 34.2656 16.6349 34.4512 16.5503 34.6368C16.1481 35.521 15.6825 36.3725 15.1428 37.1802C15.0794 37.2894 14.9947 37.3767 14.8995 37.4531C14.8042 37.5296 14.6984 37.5732 14.5714 37.5732C14.4021 37.5841 14.2222 37.6169 14.0317 37.5951Z" fill="#DFC091"/>
<path d="M21.7565 36.2196C21.5978 36.4379 21.111 36.5253 20.8676 36.3615C20.3808 36.045 19.9152 35.7066 19.5343 35.2481C19.3015 34.9752 19.0475 34.7132 18.8041 34.4512C18.783 34.4294 18.7618 34.4185 18.7301 34.3966C18.656 34.2438 18.5819 34.091 18.5078 33.9272C18.4867 33.8836 18.4761 33.829 18.5078 33.7853C18.5502 33.7308 18.6136 33.7308 18.6666 33.7526C18.7301 33.7853 18.7935 33.8181 18.857 33.8618C19.5237 34.2766 20.1375 34.7896 20.7195 35.3245C21.0052 35.5865 21.2803 35.8376 21.5343 36.1323C21.5978 36.1978 21.6719 36.2196 21.7565 36.2196Z" fill="#DFC091"/>
<path d="M17.111 15.0533C17.0793 15.3153 17.0475 15.5663 17.0264 15.8283C16.9946 16.1231 16.9523 16.4178 16.9417 16.7125C16.9206 17.1492 16.8888 17.5858 16.7301 18.0006C16.529 18.5028 16.5396 19.0158 16.7195 19.5289C16.7724 19.6708 16.7936 19.8127 16.8359 19.9546C16.4232 19.7035 16.1375 19.3542 16.0105 18.8739C15.9682 18.7102 16.0211 18.5355 16.074 18.3609C16.1586 18.0334 16.275 17.7168 16.3491 17.3893C16.3915 17.1928 16.4126 16.9963 16.4126 16.7999C16.4232 16.4833 16.4126 16.1667 16.4655 15.8502C16.5079 15.6318 16.6031 15.4353 16.7301 15.2498C16.8042 15.1079 16.9523 15.0751 17.111 15.0533Z" fill="#DFC091"/>
<path d="M13.0685 18.1644C13.0262 18.088 13.0897 18.0771 13.1426 18.0552C13.5765 17.9242 13.8833 17.6295 14.0526 17.2038C14.095 17.0946 14.095 16.9745 14.0738 16.8545C14.0315 16.6034 14.0844 16.5051 14.3172 16.4396C14.4759 16.396 14.6241 16.3632 14.7616 16.265C14.7828 16.2541 14.8145 16.2104 14.8463 16.2541C14.8569 16.4942 15.0262 16.6361 15.1743 16.789C15.2484 16.8326 15.2061 16.8981 15.1955 16.9527C15.0897 17.3457 14.878 17.6622 14.5288 17.8697C14.1161 18.1098 13.6717 18.2081 13.1955 18.1971C13.1532 18.1971 13.1108 18.2081 13.0685 18.1644Z" fill="#FEFEFE"/>
<path d="M17.7669 23.1749C18.3172 23.1858 18.8569 23.2185 19.3966 23.2731C19.4601 23.284 19.5447 23.2731 19.5447 23.3604C19.5553 23.4369 19.4601 23.4478 19.4071 23.4587C18.9098 23.6224 18.4019 23.6988 17.8728 23.7207C17.5765 23.7316 17.2802 23.7534 16.9839 23.7643C16.6876 23.7753 16.4336 23.6661 16.2008 23.4696C16.1585 23.4369 16.1267 23.3932 16.1373 23.3386C16.1479 23.2731 16.2114 23.2731 16.2643 23.2622C16.7616 23.2185 17.259 23.164 17.7669 23.1749Z" fill="#FEFEFE"/>
<path d="M13.0687 18.1644C13.566 18.1753 14.0528 18.0989 14.4972 17.8478C14.8782 17.6295 15.1004 17.2911 15.1851 16.8545C15.1851 16.8326 15.1851 16.8108 15.1851 16.789C15.3438 16.789 15.4496 16.6798 15.566 16.5816C15.5978 16.5597 15.6295 16.5051 15.6718 16.527C15.7142 16.5488 15.7036 16.6034 15.7036 16.658C15.6083 17.2802 15.2697 17.7605 14.7935 18.1316C14.6983 18.1971 14.6031 18.2626 14.5078 18.3281C14.1798 18.4482 13.8306 18.5028 13.4814 18.5574C13.2591 18.5901 13.111 18.5355 13.0263 18.3609C12.984 18.2735 12.984 18.208 13.0687 18.1644Z" fill="#DFC091"/>
<path d="M13.3756 14.2783C13.6402 14.311 13.8941 14.3765 14.0635 14.6167C14.0846 14.6494 14.1058 14.6712 14.1164 14.704C14.1375 14.7586 14.1587 14.8241 14.1164 14.8786C14.074 14.9223 14.0211 14.9114 13.9576 14.9005C13.8307 14.8677 13.6931 14.8568 13.5555 14.8568C13.1746 14.8568 12.8254 14.9878 12.4762 15.1406C12.2645 15.2389 12.0529 15.359 11.8201 15.4026C11.7142 15.4244 11.5978 15.4463 11.492 15.3917C11.3756 15.3371 11.365 15.2607 11.4603 15.1734C11.492 15.1515 11.5238 15.1297 11.5555 15.1188C11.8307 15.0096 12.074 14.8459 12.3174 14.6931C12.6031 14.5184 12.91 14.3765 13.2275 14.3001C13.291 14.2892 13.3333 14.2892 13.3756 14.2783Z" fill="#DFC091"/>
<path d="M21.1004 14.9878C20.8887 14.9878 20.6877 15.0424 20.4866 15.086C20.4549 15.0969 20.4231 15.0969 20.3914 15.0969C20.3385 15.0969 20.2961 15.086 20.275 15.0424C20.2432 14.9878 20.2644 14.9441 20.2961 14.9114C20.6665 14.5511 21.1427 14.311 21.6506 14.6057C21.767 14.6712 21.8729 14.7585 21.9787 14.8459C22.2432 15.086 22.476 15.3698 22.8041 15.5336C22.8993 15.5773 22.8887 15.6427 22.8041 15.6973C22.7088 15.7628 22.6136 15.7192 22.5184 15.6864C22.2327 15.5991 21.9998 15.4244 21.7776 15.2279C21.5766 15.0642 21.3543 14.9878 21.1004 14.9878Z" fill="#DFC091"/>
<path d="M21.9046 18.0879C21.8411 18.0006 21.9152 17.957 21.9575 17.9133C22.0951 17.7823 22.222 17.6295 22.3173 17.4657C22.4443 17.2256 22.4972 16.9854 22.3702 16.7234C22.2644 16.5051 22.3173 16.4178 22.5607 16.4178C22.7194 16.4724 22.8887 16.4724 23.0474 16.4942C23.2908 16.5269 23.3437 16.6143 23.2802 16.8544C23.185 17.2583 22.9522 17.5531 22.6347 17.7932C22.5818 17.8369 22.5395 17.8696 22.4866 17.9133C22.3173 18.0334 22.1162 18.0661 21.9046 18.0879Z" fill="#FEFEFE"/>
<path d="M8.59212 15.217C8.58154 15.6646 8.69794 16.0903 8.7826 16.516C8.80376 16.6143 8.79318 16.7016 8.69794 16.7453C8.60271 16.7889 8.52863 16.7344 8.47572 16.647C8.21117 16.1995 8.03128 15.7192 7.93604 15.2061C7.89371 14.9987 7.94662 14.9332 8.1371 14.8677C8.22175 14.835 8.30641 14.8022 8.39107 14.7804C8.51805 14.7585 8.58154 14.8131 8.59212 14.9441C8.60271 15.0424 8.59212 15.1297 8.59212 15.217Z" fill="#FEFEFE"/>
<path d="M10.4969 15.1297C10.2852 15.1297 10.1794 14.9769 10.2429 14.7804C10.3699 14.4311 10.6133 14.2128 10.9836 14.18C11.1847 14.1582 11.3752 14.1363 11.5762 14.1145C11.6292 14.1036 11.6821 14.1145 11.7244 14.1363C11.8302 14.1691 11.8514 14.2673 11.7773 14.3547C11.7456 14.3874 11.7138 14.4092 11.6821 14.4311C11.3434 14.6167 11.026 14.835 10.7191 15.0533C10.645 15.097 10.5815 15.1406 10.4969 15.1297Z" fill="#DFC091"/>
<path d="M14.9203 19.2232C14.9309 19.0049 14.9732 18.8303 15.079 18.6774C15.1954 18.5246 15.3965 18.4809 15.5552 18.5792C15.6187 18.6229 15.6399 18.6665 15.6081 18.7538C15.4917 19.0268 15.4811 19.2997 15.5975 19.5726C15.6187 19.6162 15.6293 19.6599 15.6293 19.7145C15.6505 19.911 15.5341 20.0092 15.3542 19.9328C15.1214 19.8455 15.0155 19.649 14.952 19.4197C14.9309 19.3433 14.9097 19.2669 14.9203 19.2232Z" fill="#DFC091"/>
<path d="M22.3702 14.1582C22.6136 14.18 22.8358 14.18 23.0474 14.2674C23.2908 14.3656 23.4707 14.573 23.4601 14.7913C23.4496 15.0315 23.3437 15.1952 23.0686 15.0424C22.8887 14.9442 22.73 14.8132 22.5713 14.6713C22.4443 14.5621 22.3279 14.442 22.1797 14.3547C22.1374 14.3329 22.0951 14.3001 22.1056 14.2455C22.1162 14.191 22.1586 14.1691 22.2115 14.1582C22.275 14.1582 22.3385 14.1582 22.3702 14.1582Z" fill="#DFC091"/>
<path d="M17.0265 37.5732C16.9312 37.5732 16.836 37.5841 16.7513 37.5732C16.6455 37.5623 16.6138 37.4968 16.6878 37.4204C16.9418 37.1147 17.1323 36.7763 17.2804 36.4052C17.291 36.3724 17.3016 36.3506 17.3228 36.3288C17.3333 36.3069 17.3545 36.2851 17.3862 36.2851C17.418 36.2851 17.4286 36.3178 17.4286 36.3397C17.4392 36.4488 17.4603 36.558 17.4709 36.6672C17.4921 36.8746 17.5026 37.082 17.5132 37.2894C17.5238 37.4968 17.4603 37.5623 17.2593 37.5732C17.164 37.5732 17.1005 37.5732 17.0265 37.5732Z" fill="#FEFEFE"/>
<path d="M9.42817 14.4966C9.33293 14.4966 9.23769 14.4966 9.15303 14.4966C9.06838 14.4966 9.02605 14.4747 9.02605 14.3765C9.02605 14.3328 9.02605 14.3001 9.02605 14.2564C8.98372 13.9726 9.04721 14.0053 9.25885 13.9944C9.407 13.9944 9.54457 13.9835 9.69272 13.9726C9.77737 13.9617 9.83028 14.0053 9.84087 14.0927C9.84087 14.1036 9.84087 14.1145 9.84087 14.1145C9.86203 14.5184 9.88319 14.4638 9.54457 14.4638C9.50224 14.4638 9.47049 14.4638 9.42817 14.4638C9.42817 14.4857 9.42817 14.4857 9.42817 14.4966Z" fill="#FEFEFE"/>
<path d="M24.2747 14.1255C24.3699 14.1255 24.4652 14.1255 24.5604 14.1255C24.5921 14.1255 24.6345 14.1145 24.6556 14.1473C24.7297 14.2565 24.6662 14.3656 24.6556 14.4748C24.6451 14.5512 24.5816 14.573 24.5181 14.573C24.3382 14.573 24.1583 14.573 23.989 14.5621C23.8937 14.5512 23.8408 14.4966 23.8408 14.3874C23.8408 14.0927 23.8408 14.0927 24.1265 14.0927C24.1794 14.0927 24.2324 14.0927 24.2747 14.0927C24.2747 14.1145 24.2747 14.1255 24.2747 14.1255Z" fill="#FEFEFE"/>
<path d="M21.9044 18.088C22.0949 18.0006 22.3065 17.9897 22.497 17.9024C22.4653 18.0334 22.5076 18.1426 22.5499 18.2517C22.5817 18.339 22.6557 18.35 22.7404 18.339C22.5605 18.4045 22.3806 18.4482 22.1901 18.4373C22.0843 18.4373 21.9044 18.2736 21.8833 18.1644C21.8727 18.1426 21.8938 18.1207 21.9044 18.088Z" fill="#DFC092"/>
<path d="M14.1056 27.1811C14.1585 27.2029 14.222 27.1811 14.2643 27.2247C13.8199 27.2247 13.386 27.2247 12.9416 27.2247C11.841 27.2247 10.7299 27.2247 9.62939 27.2247C9.63998 27.2029 9.63998 27.192 9.65056 27.1702C9.6823 27.2138 9.72463 27.2029 9.76696 27.2029C11.1744 27.2029 12.5818 27.2029 13.9892 27.2029C14.0315 27.2029 14.0738 27.2138 14.1056 27.1811Z" fill="#422425"/>
<path d="M14.5078 27.2248C14.5396 27.2138 14.5819 27.192 14.6136 27.1811C14.656 27.2248 14.6983 27.2029 14.7512 27.2029C15.1851 27.2029 15.6083 27.2029 16.0422 27.2029C16.0422 27.2138 16.0422 27.2248 16.0316 27.2248C15.5237 27.2248 15.0157 27.2248 14.5078 27.2248Z" fill="#422425"/>
<path d="M24.1375 27.2029C24.1375 27.2248 24.127 27.2466 24.1164 27.2575C24.0846 27.2248 24.0423 27.2357 24.0105 27.2357C23.6084 27.2357 23.2063 27.2357 22.8042 27.2357C22.8148 27.2138 22.8359 27.2029 22.8465 27.1811C22.8889 27.2248 22.9312 27.2029 22.9735 27.2029C23.365 27.2029 23.7566 27.2029 24.1375 27.2029Z" fill="#432627"/>
<path d="M24.5925 27.2248C24.5819 27.2138 24.5819 27.2029 24.5713 27.2029C24.9628 27.2029 25.3438 27.2029 25.7353 27.2029C25.7776 27.2029 25.82 27.2138 25.8517 27.1811C25.8729 27.192 25.894 27.2029 25.9046 27.2357C25.4813 27.2248 25.0369 27.2248 24.5925 27.2248Z" fill="#432526"/>
<path d="M0.761734 33.4142C0.74057 33.4251 0.719406 33.436 0.698242 33.4469C0.698242 33.1085 0.698242 32.7701 0.698242 32.4426C0.708824 32.4426 0.708824 32.4426 0.719406 32.4426C0.719406 32.7264 0.719406 33.0103 0.719406 33.2832C0.729988 33.3377 0.708824 33.3814 0.761734 33.4142Z" fill="#3C2424"/>
<path d="M4.4126 40.3677C4.44434 40.3459 4.47609 40.3459 4.50784 40.3568C4.47609 40.4004 4.44434 40.3677 4.4126 40.3677Z" fill="#482426"/>
<path d="M28.9204 43.5334C28.9204 43.7081 28.7934 43.8391 28.6347 43.85C28.4654 43.85 28.3384 43.719 28.3384 43.5552C28.3384 43.3806 28.4654 43.2278 28.6347 43.2387C28.7828 43.2168 28.9098 43.3587 28.9204 43.5334Z" fill="#FBFBFB"/>
<path d="M21.5977 34.484C21.6401 34.3748 21.6612 34.3093 21.6824 34.2329C21.7036 34.1674 21.7247 34.1346 21.7988 34.1456C21.8835 34.1565 21.8411 34.2111 21.8517 34.2547C21.8517 34.3639 21.8517 34.4621 21.8517 34.5713C21.8517 34.604 21.8517 34.6368 21.8094 34.6368C21.7671 34.6368 21.7671 34.604 21.7671 34.5713C21.7671 34.484 21.7671 34.4076 21.7671 34.2984C21.7036 34.3966 21.693 34.4949 21.6612 34.5713C21.6507 34.604 21.6401 34.6259 21.6083 34.6259C21.566 34.6259 21.5554 34.604 21.5554 34.5713C21.5237 34.484 21.4919 34.3966 21.439 34.3093C21.439 34.3966 21.439 34.473 21.439 34.5604C21.439 34.5931 21.439 34.6259 21.3967 34.6259C21.3544 34.6259 21.3544 34.5931 21.3544 34.5604C21.3544 34.4512 21.3544 34.3311 21.3544 34.222C21.3544 34.1892 21.3332 34.1346 21.4073 34.1456C21.4496 34.1456 21.5025 34.1346 21.5131 34.2001C21.5237 34.2875 21.5554 34.3748 21.5977 34.484Z" fill="#262422"/>
<path d="M21.0793 34.1456C21.1216 34.1456 21.1746 34.1456 21.2169 34.1456C21.238 34.1456 21.2698 34.1456 21.2698 34.1783C21.2698 34.2111 21.2486 34.2329 21.2275 34.222C21.1005 34.2002 21.1216 34.2875 21.1216 34.3639C21.1216 34.4076 21.1322 34.4512 21.1216 34.4949C21.1111 34.5385 21.164 34.6259 21.0687 34.6259C20.9841 34.6259 21.037 34.5495 21.0264 34.5058C21.0158 34.4621 21.0264 34.4185 21.0264 34.3748C21.0264 34.2984 21.0476 34.2002 20.91 34.222C20.8888 34.222 20.8677 34.2111 20.8677 34.1892C20.8677 34.1565 20.8888 34.1456 20.91 34.1456C20.9629 34.1456 21.0264 34.1456 21.0793 34.1456Z" fill="#282625"/>
<path d="M28.7511 43.7299C28.6982 43.708 28.7087 43.6644 28.7087 43.6316C28.6876 43.577 28.6453 43.5661 28.6029 43.5661C28.5394 43.5661 28.55 43.6098 28.55 43.6425C28.55 43.6753 28.5606 43.708 28.5183 43.708C28.4759 43.708 28.4865 43.6644 28.4865 43.6425C28.4865 43.5879 28.4865 43.5334 28.4865 43.4897C28.4865 43.3369 28.5818 43.2714 28.7193 43.3369C28.7511 43.3478 28.7617 43.3696 28.7722 43.4024C28.804 43.4679 28.6982 43.5006 28.7405 43.5552C28.7722 43.6207 28.7828 43.6753 28.7511 43.7299Z" fill="#2B2927"/>
<path d="M28.6239 43.3915C28.6662 43.3915 28.7085 43.4133 28.698 43.4679C28.6874 43.5225 28.6345 43.5334 28.5921 43.5334C28.5287 43.5334 28.5392 43.4897 28.5392 43.457C28.5392 43.3805 28.5816 43.3805 28.6239 43.3915Z" fill="#EDECEC"/>
</svg>
