<svg width="54" height="19" viewBox="0 0 54 19" fill="none" xmlns="http://www.w3.org/2000/svg">
<path fill-rule="evenodd" clip-rule="evenodd" d="M6.91712 0.842529C3.40322 4.87682 0.0340584 9.87971 0.000274287 13.6192C-0.0128837 15.0262 0.44658 16.2545 1.54865 17.1848C3.13473 18.5247 4.88225 18.9972 6.62124 19C9.16252 19.0035 11.686 18.0012 13.6618 17.2283C16.9894 15.9273 53.7724 0.311298 53.7724 0.311298C54.1274 0.137466 54.0609 -0.0791277 53.6167 0.0289959C53.4375 0.0728016 13.5726 10.6345 13.5726 10.6345C12.8175 10.8433 12.0372 10.9525 11.2525 10.9592C8.18882 10.9769 5.46263 9.31441 5.48468 5.811C5.49321 4.44016 5.92245 2.78701 6.91712 0.842529Z" fill="black"/>
</svg>
