<svg width="57" height="13" viewBox="0 0 57 13" fill="none" xmlns="http://www.w3.org/2000/svg">
<path d="M7.26481 9.75086C8.71128 9.56583 9.87977 8.38697 10.0643 6.92649C10.1288 6.42802 10.0788 5.92127 9.91837 5.44534C9.75792 4.96942 9.49124 4.53705 9.1389 4.18159C8.78657 3.82612 8.358 3.55707 7.88627 3.3952C7.41453 3.23332 6.91224 3.18294 6.41815 3.24795C4.97053 3.43415 3.80204 4.613 3.61864 6.07232C3.5542 6.5708 3.60414 7.07755 3.76459 7.55347C3.92504 8.02939 4.19172 8.46176 4.54406 8.81723C4.89639 9.17269 5.32496 9.44174 5.7967 9.60361C6.26843 9.76549 6.77072 9.81587 7.26481 9.75086ZM7.46206 0.38518C8.85467 0.533084 10.1547 1.15883 11.1449 2.15778C12.1351 3.15673 12.7553 4.46835 12.9019 5.87332C13.2837 9.76017 10.0724 13 6.2186 12.6148C4.8262 12.4666 3.5264 11.8408 2.53646 10.8419C1.54653 9.84292 0.926464 8.53145 0.779909 7.12665C0.398105 3.2398 3.60941 -1.34408e-05 7.46206 0.38518ZM16.1709 0.628399H25.0885C25.4276 0.628399 25.6191 1.01941 25.4149 1.29172L19.2449 9.50415H24.0792C24.9605 9.50415 25.6537 10.3129 25.4714 11.2346C25.3376 11.9107 24.709 12.3716 24.0261 12.3716H14.3415C14.0058 12.3716 13.8155 11.9841 14.0173 11.7152L20.1919 3.49582H16.2239C15.5411 3.49582 14.9124 3.03382 14.7786 2.35886C14.5952 1.43719 15.2896 0.628399 16.1709 0.628399ZM54.8715 0.660984C55.792 0.465478 56.6017 1.16837 56.6017 2.06211V11.9573C56.6017 12.3029 56.2061 12.4949 55.9385 12.2808L48.2459 6.12352V10.9402C48.2459 11.8339 47.4361 12.5368 46.5157 12.3413C45.8559 12.2017 45.4037 11.5814 45.4037 10.9018V1.04152C45.4037 0.695896 45.7993 0.503881 46.067 0.718007L53.7607 6.87529V2.10052C53.7607 1.4209 54.214 0.801795 54.8727 0.660984H54.8715ZM34.8412 0.35376C39.5509 0.35376 43.3689 3.10481 43.3689 6.49824C43.3689 9.89167 39.5509 12.6427 34.8412 12.6427C30.1315 12.6427 26.3135 9.89167 26.3135 6.49824C26.3135 3.10481 30.1315 0.35376 34.8412 0.35376ZM34.8412 3.22118C31.5872 3.22118 29.1557 4.95165 29.1557 6.49824C29.1557 8.04484 31.5872 9.7753 34.8412 9.7753C38.0952 9.7753 40.5268 8.046 40.5268 6.49824C40.5268 4.95048 38.0952 3.22118 34.8412 3.22118Z" fill="#005BFF"/>
</svg>
